<svg width="20" height="20" viewBox="0 0 20 20" fill="none" xmlns="http://www.w3.org/2000/svg">
<path fill-rule="evenodd" clip-rule="evenodd" d="M5.91667 1.04175H14.0842C14.9317 1.04175 15.515 1.04175 16.0058 1.21175C16.4646 1.37376 16.8798 1.63939 17.2191 1.98801C17.5585 2.33662 17.8129 2.75881 17.9625 3.22175C18.1258 3.71925 18.125 4.31091 18.125 5.18841V16.9784C18.125 18.2001 16.6858 18.9267 15.7383 18.0592C15.7079 18.0302 15.6675 18.0139 15.6254 18.0139C15.5833 18.0139 15.5429 18.0302 15.5125 18.0592L15.1092 18.4276C14.3358 19.1359 13.1642 19.1359 12.3908 18.4276C12.2509 18.2969 12.0665 18.2242 11.875 18.2242C11.6835 18.2242 11.4991 18.2969 11.3592 18.4276C10.5858 19.1359 9.41417 19.1359 8.64083 18.4276C8.50086 18.2969 8.3165 18.2242 8.125 18.2242C7.9335 18.2242 7.74914 18.2969 7.60917 18.4276C6.83583 19.1359 5.66417 19.1359 4.89083 18.4276L4.48833 18.0592C4.45789 18.0299 4.41727 18.0135 4.375 18.0135C4.33273 18.0135 4.29211 18.0299 4.26167 18.0592C3.31417 18.9259 1.875 18.2001 1.875 16.9784V5.18925C1.875 4.31091 1.875 3.71925 2.0375 3.22175C2.18706 2.75878 2.44142 2.33656 2.78079 1.98794C3.12016 1.63932 3.53539 1.3737 3.99417 1.21175C4.48583 1.04091 5.06917 1.04175 5.91667 1.04175ZM6.03833 2.29175C5.02083 2.29175 4.67 2.30008 4.405 2.39258C4.12811 2.49158 3.87777 2.65308 3.67341 2.86451C3.46906 3.07595 3.31618 3.33165 3.22667 3.61175C3.13417 3.89341 3.12667 4.26508 3.12667 5.30841V16.9784C3.12667 17.0784 3.17583 17.1384 3.23833 17.1676C3.26685 17.1812 3.29864 17.1864 3.33 17.1826C3.36383 17.1771 3.39505 17.1611 3.41917 17.1367C3.67993 16.8967 4.0214 16.7635 4.37583 16.7635C4.73026 16.7635 5.07174 16.8967 5.3325 17.1367L5.735 17.5051C5.87497 17.6358 6.05933 17.7085 6.25083 17.7085C6.44233 17.7085 6.6267 17.6358 6.76667 17.5051C7.13704 17.1638 7.62222 16.9744 8.12583 16.9744C8.62945 16.9744 9.11463 17.1638 9.485 17.5051C9.62497 17.6358 9.80933 17.7085 10.0008 17.7085C10.1923 17.7085 10.3767 17.6358 10.5167 17.5051C10.887 17.1638 11.3722 16.9744 11.8758 16.9744C12.3794 16.9744 12.8646 17.1638 13.235 17.5051C13.375 17.6358 13.5593 17.7085 13.7508 17.7085C13.9423 17.7085 14.1267 17.6358 14.2667 17.5051L14.6692 17.1367C14.9299 16.8967 15.2714 16.7635 15.6258 16.7635C15.9803 16.7635 16.3217 16.8967 16.5825 17.1367C16.6183 17.1701 16.6492 17.1801 16.6725 17.1826C16.7036 17.1862 16.7351 17.181 16.7633 17.1676C16.8258 17.1384 16.8758 17.0776 16.8758 16.9784V5.30841C16.8758 4.26508 16.8675 3.89341 16.7758 3.61091C16.686 3.3308 16.5329 3.07515 16.3282 2.86385C16.1236 2.65255 15.8729 2.49128 15.5958 2.39258C15.3317 2.30091 14.9808 2.29258 13.9633 2.29258L6.03833 2.29175ZM5.20917 6.25008C5.20917 6.08432 5.27501 5.92535 5.39222 5.80814C5.50943 5.69093 5.66841 5.62508 5.83417 5.62508H6.25083C6.41659 5.62508 6.57556 5.69093 6.69277 5.80814C6.80998 5.92535 6.87583 6.08432 6.87583 6.25008C6.87583 6.41584 6.80998 6.57481 6.69277 6.69202C6.57556 6.80923 6.41659 6.87508 6.25083 6.87508H5.83417C5.66841 6.87508 5.50943 6.80923 5.39222 6.69202C5.27501 6.57481 5.20917 6.41584 5.20917 6.25008ZM8.12583 6.25008C8.12583 6.08432 8.19168 5.92535 8.30889 5.80814C8.4261 5.69093 8.58507 5.62508 8.75083 5.62508H14.1675C14.3333 5.62508 14.4922 5.69093 14.6094 5.80814C14.7267 5.92535 14.7925 6.08432 14.7925 6.25008C14.7925 6.41584 14.7267 6.57481 14.6094 6.69202C14.4922 6.80923 14.3333 6.87508 14.1675 6.87508H8.75083C8.58507 6.87508 8.4261 6.80923 8.30889 6.69202C8.19168 6.57481 8.12583 6.41584 8.12583 6.25008ZM5.20917 9.16675C5.20917 9.00099 5.27501 8.84202 5.39222 8.72481C5.50943 8.6076 5.66841 8.54175 5.83417 8.54175H6.25083C6.41659 8.54175 6.57556 8.6076 6.69277 8.72481C6.80998 8.84202 6.87583 9.00099 6.87583 9.16675C6.87583 9.33251 6.80998 9.49148 6.69277 9.60869C6.57556 9.7259 6.41659 9.79175 6.25083 9.79175H5.83417C5.66841 9.79175 5.50943 9.7259 5.39222 9.60869C5.27501 9.49148 5.20917 9.33251 5.20917 9.16675ZM8.12583 9.16675C8.12583 9.00099 8.19168 8.84202 8.30889 8.72481C8.4261 8.6076 8.58507 8.54175 8.75083 8.54175H14.1675C14.3333 8.54175 14.4922 8.6076 14.6094 8.72481C14.7267 8.84202 14.7925 9.00099 14.7925 9.16675C14.7925 9.33251 14.7267 9.49148 14.6094 9.60869C14.4922 9.7259 14.3333 9.79175 14.1675 9.79175H8.75083C8.58507 9.79175 8.4261 9.7259 8.30889 9.60869C8.19168 9.49148 8.12583 9.33251 8.12583 9.16675ZM5.20917 12.0834C5.20917 11.9177 5.27501 11.7587 5.39222 11.6415C5.50943 11.5243 5.66841 11.4584 5.83417 11.4584H6.25083C6.41659 11.4584 6.57556 11.5243 6.69277 11.6415C6.80998 11.7587 6.87583 11.9177 6.87583 12.0834C6.87583 12.2492 6.80998 12.4081 6.69277 12.5254C6.57556 12.6426 6.41659 12.7084 6.25083 12.7084H5.83417C5.66841 12.7084 5.50943 12.6426 5.39222 12.5254C5.27501 12.4081 5.20917 12.2492 5.20917 12.0834ZM8.12583 12.0834C8.12583 11.9177 8.19168 11.7587 8.30889 11.6415C8.4261 11.5243 8.58507 11.4584 8.75083 11.4584H14.1675C14.3333 11.4584 14.4922 11.5243 14.6094 11.6415C14.7267 11.7587 14.7925 11.9177 14.7925 12.0834C14.7925 12.2492 14.7267 12.4081 14.6094 12.5254C14.4922 12.6426 14.3333 12.7084 14.1675 12.7084H8.75083C8.58507 12.7084 8.4261 12.6426 8.30889 12.5254C8.19168 12.4081 8.12583 12.2492 8.12583 12.0834Z" fill="#DB4C45"/>
</svg>
