<svg width="18" height="18" viewBox="0 0 18 18" fill="none" xmlns="http://www.w3.org/2000/svg">
<path d="M13.6477 2.69341L11.981 1.81841C10.5177 1.05091 9.78602 0.666748 8.99935 0.666748C8.21268 0.666748 7.48102 1.05008 6.01768 1.81841L5.75018 1.95925L13.186 6.20841L16.5327 4.53341C15.9943 3.92341 15.126 3.46758 13.6477 2.69175V2.69341ZM17.1227 5.63675L13.791 7.30341V9.83341C13.791 9.99918 13.7252 10.1581 13.608 10.2754C13.4907 10.3926 13.3318 10.4584 13.166 10.4584C13.0003 10.4584 12.8413 10.3926 12.7241 10.2754C12.6069 10.1581 12.541 9.99918 12.541 9.83341V7.92758L9.62435 9.38591V17.2534C10.2227 17.1042 10.9035 16.7476 11.981 16.1817L13.6477 15.3067C15.4402 14.3659 16.3368 13.8959 16.8352 13.0501C17.3327 12.2051 17.3327 11.1526 17.3327 9.05008V8.95258C17.3327 7.37508 17.3327 6.38841 17.1227 5.63675ZM8.37435 17.2534V9.38675L0.876016 5.63675C0.666016 6.38841 0.666016 7.37508 0.666016 8.95091V9.04841C0.666016 11.1526 0.666016 12.2051 1.16352 13.0501C1.66185 13.8959 2.55852 14.3667 4.35102 15.3076L6.01768 16.1817C7.09518 16.7476 7.77602 17.1042 8.37435 17.2534ZM1.46602 4.53425L8.99935 8.30091L11.8418 6.88008L4.43685 2.64841L4.35102 2.69341C2.87352 3.46841 2.00435 3.92425 1.46602 4.53508V4.53425Z" fill="white"/>
</svg>
