<svg id="Capa_1" enable-background="new 0 0 512 512" height="512" viewBox="0 0 512 512" width="512" xmlns="http://www.w3.org/2000/svg"><g><g><path d="m378.69 115.391-40.184 30.905h-184.121l-21.075-30.905 41.409-60.659c4.552-6.668 12.105-10.657 20.179-10.657h122.204c8.074 0 15.626 3.989 20.178 10.657z" fill="#9b9b9b"/><path d="m337.28 54.731c-4.552-6.668-12.105-10.657-20.178-10.657h-28.108c8.074 0 15.626 3.989 20.178 10.657l41.409 60.659h28.108z" fill="#818181"/></g><g><path d="m512 167.858v250.715c0 11.919-9.653 21.572-21.572 21.572h-468.856c-11.919 0-21.572-9.653-21.572-21.572v-250.715c0-11.909 9.653-21.562 21.572-21.562h468.856c11.919 0 21.572 9.653 21.572 21.562z" fill="#595959"/><path d="m490.428 146.296h-24.622c11.919 0 21.572 9.653 21.572 21.562v250.715c0 11.919-9.653 21.572-21.572 21.572h24.622c11.919 0 21.572-9.653 21.572-21.572v-250.715c0-11.909-9.653-21.562-21.572-21.562z" fill="#454545"/></g><path d="m454.919 467.926h-397.839c-9.131 0-16.533-7.402-16.533-16.533v-11.249h430.905v11.249c.001 9.131-7.402 16.533-16.533 16.533z" fill="#454545"/><path d="m512 136.952v47.079h-512v-47.079c0-11.909 9.653-21.562 21.572-21.562h468.856c11.919.001 21.572 9.653 21.572 21.562z" fill="#f4fbff"/><path d="m490.428 115.391h-24.622c11.919 0 21.572 9.653 21.572 21.562v47.079h24.622v-47.079c0-11.91-9.653-21.562-21.572-21.562z" fill="#dfeaef"/><g><path d="m459.381 157.438h-24.013c-4.268 0-7.726-3.459-7.726-7.726 0-4.268 3.459-7.726 7.726-7.726h24.013c4.268 0 7.726 3.459 7.726 7.726s-3.458 7.726-7.726 7.726z" fill="#454545"/></g><path d="m105.835 115.391h-63.824v-16.372c0-6.523 5.288-11.812 11.812-11.812h40.201c6.523 0 11.812 5.288 11.812 11.812v16.372z" fill="#9b9b9b"/><circle cx="256" cy="279.183" fill="#9b9b9b" r="132.081"/><path d="m256 147.102c-3.74 0-7.441.164-11.102.469 67.75 5.64 120.979 62.406 120.979 131.612s-53.229 125.973-120.979 131.612c3.661.305 7.362.469 11.102.469 72.946 0 132.081-59.135 132.081-132.081s-59.135-132.081-132.081-132.081z" fill="#818181"/><circle cx="256" cy="279.183" fill="#d3effb" r="97.619"/><path d="m256 181.564c-4.247 0-8.431.273-12.536.799 47.993 6.152 85.083 47.154 85.083 96.82s-37.091 90.668-85.083 96.82c4.104.526 8.288.799 12.536.799 53.913 0 97.619-43.705 97.619-97.619 0-53.913-43.706-97.619-97.619-97.619z" fill="#b1e4f9"/><g><path d="m197.373 286.909c-4.268 0-7.726-3.459-7.726-7.726 0-36.588 29.766-66.353 66.353-66.353 4.268 0 7.726 3.459 7.726 7.726s-3.459 7.726-7.726 7.726c-28.066 0-50.9 22.834-50.9 50.9-.001 4.269-3.46 7.727-7.727 7.727z" fill="#b1e4f9"/></g><g><g><path d="m449.165 407.285c-4.268 0-7.726-3.459-7.726-7.726v-3.193c0-4.268 3.459-7.726 7.726-7.726 4.268 0 7.726 3.459 7.726 7.726v3.193c0 4.267-3.459 7.726-7.726 7.726z" fill="#454545"/></g><g><path d="m62.836 407.285c-4.268 0-7.726-3.459-7.726-7.726v-3.193c0-4.268 3.459-7.726 7.726-7.726 4.268 0 7.726 3.459 7.726 7.726v3.193c0 4.267-3.459 7.726-7.726 7.726z" fill="#454545"/></g></g></g></svg>