<svg width="28" height="27" viewBox="0 0 28 27" fill="none" xmlns="http://www.w3.org/2000/svg">
<path fill-rule="evenodd" clip-rule="evenodd" d="M14 25C17.05 25 19.9751 23.7884 22.1317 21.6317C24.2884 19.4751 25.5 16.55 25.5 13.5C25.5 10.45 24.2884 7.52494 22.1317 5.36827C19.9751 3.2116 17.05 2 14 2C10.95 2 8.02494 3.2116 5.86827 5.36827C3.7116 7.52494 2.5 10.45 2.5 13.5C2.5 16.55 3.7116 19.4751 5.86827 21.6317C8.02494 23.7884 10.95 25 14 25ZM10.7033 8.17167C10.4308 7.91775 10.0704 7.77951 9.698 7.78608C9.32559 7.79265 8.97027 7.94352 8.70689 8.20689C8.44352 8.47027 8.29265 8.82559 8.28608 9.198C8.27951 9.57041 8.41775 9.93083 8.67167 10.2033L17.2967 18.8283C17.5692 19.0823 17.9296 19.2205 18.302 19.2139C18.6744 19.2073 19.0297 19.0565 19.2931 18.7931C19.5565 18.5297 19.7073 18.1744 19.7139 17.802C19.7205 17.4296 19.5823 17.0692 19.3283 16.7967L10.7033 8.17167Z" fill="#CACDE4"/>
</svg>
