<svg width="14" height="11" viewBox="0 0 14 11" fill="none" xmlns="http://www.w3.org/2000/svg">
<path d="M3.125 8.625C3.125 8.95652 3.2567 9.27446 3.49112 9.50888C3.72554 9.7433 4.04348 9.875 4.375 9.875C4.70652 9.875 5.02446 9.7433 5.25888 9.50888C5.4933 9.27446 5.625 8.95652 5.625 8.625C5.625 8.29348 5.4933 7.97554 5.25888 7.74112C5.02446 7.5067 4.70652 7.375 4.375 7.375C4.04348 7.375 3.72554 7.5067 3.49112 7.74112C3.2567 7.97554 3.125 8.29348 3.125 8.625ZM9.375 8.625C9.375 8.95652 9.5067 9.27446 9.74112 9.50888C9.97554 9.7433 10.2935 9.875 10.625 9.875C10.9565 9.875 11.2745 9.7433 11.5089 9.50888C11.7433 9.27446 11.875 8.95652 11.875 8.625C11.875 8.29348 11.7433 7.97554 11.5089 7.74112C11.2745 7.5067 10.9565 7.375 10.625 7.375C10.2935 7.375 9.97554 7.5067 9.74112 7.74112C9.5067 7.97554 9.375 8.29348 9.375 8.625Z" stroke="#0EC1E9" stroke-linecap="round" stroke-linejoin="round"/>
<path d="M3.125 8.625H1.875V6.125M1.25 1.125H8.125V8.625M5.625 8.625H9.375M11.875 8.625H13.125V4.875M13.125 4.875H8.125M13.125 4.875L11.25 1.75H8.125M1.875 3.625H4.375" stroke="#0EC1E9" stroke-linecap="round" stroke-linejoin="round"/>
</svg>
