<svg width="25" height="24" viewBox="0 0 25 24" fill="none" xmlns="http://www.w3.org/2000/svg">
<path d="M21.8454 7.431C21.7535 7.29808 21.6306 7.18943 21.4875 7.11436C21.3443 7.0393 21.1851 7.00006 21.0234 7H7.35644L6.20244 4.23C6.05113 3.86523 5.79491 3.55359 5.46626 3.33462C5.13762 3.11564 4.75135 2.99918 4.35644 3H2.02344V5H4.35644L9.10044 16.385C9.17642 16.5672 9.30461 16.7228 9.46886 16.8322C9.63311 16.9416 9.82607 17 10.0234 17H18.0234C18.4404 17 18.8134 16.741 18.9604 16.352L21.9604 8.352C22.0171 8.20063 22.0363 8.03776 22.0163 7.87735C21.9962 7.71695 21.9376 7.56379 21.8454 7.431ZM17.3304 15H10.6904L8.19044 9H19.5804L17.3304 15Z" fill="#333333"/>
<path d="M10.5234 21C11.3519 21 12.0234 20.3284 12.0234 19.5C12.0234 18.6716 11.3519 18 10.5234 18C9.69501 18 9.02344 18.6716 9.02344 19.5C9.02344 20.3284 9.69501 21 10.5234 21Z" fill="#333333"/>
<path d="M17.5234 21C18.3519 21 19.0234 20.3284 19.0234 19.5C19.0234 18.6716 18.3519 18 17.5234 18C16.695 18 16.0234 18.6716 16.0234 19.5C16.0234 20.3284 16.695 21 17.5234 21Z" fill="#333333"/>
</svg>
