<svg width="19" height="18" viewBox="0 0 19 18" fill="none" xmlns="http://www.w3.org/2000/svg">
<path d="M1.25 0C1.05109 0 0.860322 0.0790178 0.71967 0.21967C0.579018 0.360322 0.5 0.551088 0.5 0.75C0.5 0.948912 0.579018 1.13968 0.71967 1.28033C0.860322 1.42098 1.05109 1.5 1.25 1.5H1.619C1.78186 1.50028 1.9402 1.55357 2.07009 1.6518C2.19999 1.75003 2.29438 1.88788 2.339 2.0445L4.718 10.3695C4.85255 10.8393 5.13641 11.2525 5.52665 11.5467C5.91689 11.8409 6.3923 12 6.881 12H13.7345C14.1843 12.0001 14.6237 11.8654 14.9962 11.6132C15.3686 11.3611 15.657 11.0031 15.824 10.5855L18.035 5.0565C18.1259 4.82899 18.1597 4.58268 18.1334 4.3391C18.1071 4.09551 18.0216 3.86208 17.8842 3.65919C17.7469 3.4563 17.562 3.29014 17.3456 3.17523C17.1292 3.06032 16.888 3.00015 16.643 3H4.172L3.7805 1.632C3.64629 1.16216 3.36277 0.748779 2.97281 0.454345C2.58285 0.15991 2.10763 0.000426552 1.619 0H1.25ZM7.25 18C7.54547 18 7.83806 17.9418 8.11104 17.8287C8.38402 17.7157 8.63206 17.5499 8.84099 17.341C9.04992 17.1321 9.21566 16.884 9.32873 16.611C9.4418 16.3381 9.5 16.0455 9.5 15.75C9.5 15.4545 9.4418 15.1619 9.32873 14.889C9.21566 14.616 9.04992 14.3679 8.84099 14.159C8.63206 13.9501 8.38402 13.7843 8.11104 13.6713C7.83806 13.5582 7.54547 13.5 7.25 13.5C6.65326 13.5 6.08097 13.7371 5.65901 14.159C5.23705 14.581 5 15.1533 5 15.75C5 16.3467 5.23705 16.919 5.65901 17.341C6.08097 17.7629 6.65326 18 7.25 18ZM13.25 18C13.5455 18 13.8381 17.9418 14.111 17.8287C14.384 17.7157 14.6321 17.5499 14.841 17.341C15.0499 17.1321 15.2157 16.884 15.3287 16.611C15.4418 16.3381 15.5 16.0455 15.5 15.75C15.5 15.4545 15.4418 15.1619 15.3287 14.889C15.2157 14.616 15.0499 14.3679 14.841 14.159C14.6321 13.9501 14.384 13.7843 14.111 13.6713C13.8381 13.5582 13.5455 13.5 13.25 13.5C12.6533 13.5 12.081 13.7371 11.659 14.159C11.2371 14.581 11 15.1533 11 15.75C11 16.3467 11.2371 16.919 11.659 17.341C12.081 17.7629 12.6533 18 13.25 18Z" fill="#333333" fill-opacity="0.4"/>
</svg>
