<svg width="15" height="16" viewBox="0 0 15 16" fill="none" xmlns="http://www.w3.org/2000/svg">
<path d="M0.833984 1.3335H5.83398V6.3335H0.833984V1.3335ZM9.16732 1.3335H14.1673V6.3335H9.16732V1.3335ZM0.833984 9.66683H5.83398V14.6668H0.833984V9.66683ZM9.16732 12.1668C9.16732 12.8299 9.43071 13.4658 9.89955 13.9346C10.3684 14.4034 11.0043 14.6668 11.6673 14.6668C12.3304 14.6668 12.9662 14.4034 13.4351 13.9346C13.9039 13.4658 14.1673 12.8299 14.1673 12.1668C14.1673 11.5038 13.9039 10.8679 13.4351 10.3991C12.9662 9.93022 12.3304 9.66683 11.6673 9.66683C11.0043 9.66683 10.3684 9.93022 9.89955 10.3991C9.43071 10.8679 9.16732 11.5038 9.16732 12.1668Z" stroke="#807A7A" stroke-width="1.66667" stroke-linecap="round" stroke-linejoin="round"/>
</svg>
