<svg width="22" height="22" viewBox="0 0 22 22" fill="none" xmlns="http://www.w3.org/2000/svg">
<path d="M9.89857 11C9.89857 11.2984 10.0171 11.5845 10.2281 11.7955C10.4391 12.0065 10.7252 12.125 11.0236 12.125C11.3219 12.125 11.6081 12.0065 11.8191 11.7955C12.03 11.5845 12.1486 11.2984 12.1486 11C12.1486 10.7016 12.03 10.4155 11.8191 10.2045C11.6081 9.99353 11.3219 9.875 11.0236 9.875C10.7252 9.875 10.4391 9.99353 10.2281 10.2045C10.0171 10.4155 9.89857 10.7016 9.89857 11ZM14.5861 11C14.5861 11.2984 14.7046 11.5845 14.9156 11.7955C15.1266 12.0065 15.4127 12.125 15.7111 12.125C16.0094 12.125 16.2956 12.0065 16.5066 11.7955C16.7175 11.5845 16.8361 11.2984 16.8361 11C16.8361 10.7016 16.7175 10.4155 16.5066 10.2045C16.2956 9.99353 16.0094 9.875 15.7111 9.875C15.4127 9.875 15.1266 9.99353 14.9156 10.2045C14.7046 10.4155 14.5861 10.7016 14.5861 11ZM5.21107 11C5.21107 11.2984 5.3296 11.5845 5.54058 11.7955C5.75155 12.0065 6.0377 12.125 6.33607 12.125C6.63444 12.125 6.92059 12.0065 7.13157 11.7955C7.34254 11.5845 7.46107 11.2984 7.46107 11C7.46107 10.7016 7.34254 10.4155 7.13157 10.2045C6.92059 9.99353 6.63444 9.875 6.33607 9.875C6.0377 9.875 5.75155 9.99353 5.54058 10.2045C5.3296 10.4155 5.21107 10.7016 5.21107 11ZM20.7079 6.93125C20.1783 5.67266 19.4189 4.54297 18.4509 3.57266C17.4897 2.60796 16.3486 1.84114 15.0923 1.31563C13.8033 0.774219 12.4345 0.5 11.0236 0.5H10.9767C9.55638 0.507031 8.1806 0.788281 6.88685 1.34141C5.64128 1.87232 4.51091 2.64049 3.55873 3.60312C2.60013 4.57109 1.84779 5.69609 1.32748 6.95C0.788414 8.24844 0.516539 9.62891 0.52357 11.0492C0.531523 12.6769 0.916598 14.2806 1.64857 15.7344V19.2969C1.64857 19.5828 1.76216 19.857 1.96435 20.0592C2.16653 20.2614 2.44076 20.375 2.7267 20.375H6.29154C7.74535 21.107 9.34903 21.492 10.9767 21.5H11.0259C12.4298 21.5 13.7915 21.2281 15.0736 20.6961C16.3236 20.1768 17.4604 19.419 18.4204 18.4648C19.3884 17.5063 20.1501 16.3859 20.6822 15.1367C21.2353 13.843 21.5165 12.4672 21.5236 11.0469C21.5306 9.61953 21.254 8.23438 20.7079 6.93125ZM17.1665 17.1969C15.5236 18.8234 13.3439 19.7188 11.0236 19.7188H10.9837C9.57045 19.7117 8.16654 19.3602 6.9267 18.6992L6.72982 18.5938H3.42982V15.2938L3.32435 15.0969C2.66341 13.857 2.31185 12.4531 2.30482 11.0398C2.29545 8.70312 3.18841 6.50937 4.8267 4.85703C6.46263 3.20469 8.64935 2.29062 10.9861 2.28125H11.0259C12.1978 2.28125 13.3345 2.50859 14.4056 2.95859C15.4509 3.39687 16.3884 4.02734 17.1947 4.83359C17.9986 5.6375 18.6314 6.57734 19.0697 7.62266C19.5244 8.70547 19.7517 9.85391 19.747 11.0398C19.7329 13.3742 18.8165 15.5609 17.1665 17.1969Z" fill="#DB4C45"/>
</svg>
