<svg width="25" height="25" viewBox="0 0 25 25" fill="none" xmlns="http://www.w3.org/2000/svg">
<path fill-rule="evenodd" clip-rule="evenodd" d="M12.5 3.5C10.1131 3.5 7.82387 4.44821 6.13604 6.13604C4.44821 7.82387 3.5 10.1131 3.5 12.5C3.5 14.8869 4.44821 17.1761 6.13604 18.864C7.82387 20.5518 10.1131 21.5 12.5 21.5H17C18.398 21.5 19.097 21.5 19.648 21.272C20.0121 21.1212 20.3429 20.9002 20.6216 20.6216C20.9002 20.3429 21.1212 20.0121 21.272 19.648C21.5 19.097 21.5 18.398 21.5 17V12.5C21.5 10.1131 20.5518 7.82387 18.864 6.13604C17.1761 4.44821 14.8869 3.5 12.5 3.5ZM8.5 11.5C8.5 11.2348 8.60536 10.9804 8.79289 10.7929C8.98043 10.6054 9.23478 10.5 9.5 10.5H15.5C15.7652 10.5 16.0196 10.6054 16.2071 10.7929C16.3946 10.9804 16.5 11.2348 16.5 11.5C16.5 11.7652 16.3946 12.0196 16.2071 12.2071C16.0196 12.3946 15.7652 12.5 15.5 12.5H9.5C9.23478 12.5 8.98043 12.3946 8.79289 12.2071C8.60536 12.0196 8.5 11.7652 8.5 11.5ZM11.5 15.5C11.5 15.2348 11.6054 14.9804 11.7929 14.7929C11.9804 14.6054 12.2348 14.5 12.5 14.5H15.5C15.7652 14.5 16.0196 14.6054 16.2071 14.7929C16.3946 14.9804 16.5 15.2348 16.5 15.5C16.5 15.7652 16.3946 16.0196 16.2071 16.2071C16.0196 16.3946 15.7652 16.5 15.5 16.5H12.5C12.2348 16.5 11.9804 16.3946 11.7929 16.2071C11.6054 16.0196 11.5 15.7652 11.5 15.5Z" fill="#333333" fill-opacity="0.4"/>
</svg>
