<svg width="29" height="28" viewBox="0 0 29 28" fill="none" xmlns="http://www.w3.org/2000/svg">
<path d="M14.4987 2.3335C8.0587 2.3335 2.83203 7.56016 2.83203 14.0002C2.83203 20.4402 8.0587 25.6668 14.4987 25.6668C20.9387 25.6668 26.1654 20.4402 26.1654 14.0002C26.1654 7.56016 20.9387 2.3335 14.4987 2.3335ZM11.337 19.0052L7.1487 14.8168C7.04069 14.7088 6.95501 14.5806 6.89655 14.4395C6.83809 14.2983 6.80801 14.1471 6.80801 13.9943C6.80801 13.8416 6.83809 13.6903 6.89655 13.5492C6.95501 13.4081 7.04069 13.2798 7.1487 13.1718C7.25671 13.0638 7.38494 12.9781 7.52606 12.9197C7.66719 12.8612 7.81845 12.8311 7.9712 12.8311C8.12395 12.8311 8.27521 12.8612 8.41633 12.9197C8.55746 12.9781 8.68569 13.0638 8.7937 13.1718L12.1654 16.5318L20.192 8.50516C20.4102 8.28702 20.706 8.16447 21.0145 8.16447C21.323 8.16447 21.6189 8.28702 21.837 8.50516C22.0552 8.7233 22.1777 9.01917 22.1777 9.32766C22.1777 9.63616 22.0552 9.93202 21.837 10.1502L12.982 19.0052C12.8741 19.1133 12.7459 19.1991 12.6048 19.2577C12.4636 19.3162 12.3123 19.3463 12.1595 19.3463C12.0067 19.3463 11.8554 19.3162 11.7143 19.2577C11.5732 19.1991 11.445 19.1133 11.337 19.0052Z" fill="#3AC271"/>
</svg>
