<svg width="93" height="94" viewBox="0 0 93 94" fill="none" xmlns="http://www.w3.org/2000/svg">
<path d="M46.5 0.59375C37.3217 0.59375 28.3496 3.31543 20.7181 8.41461C13.0866 13.5138 7.13862 20.7615 3.62624 29.2411C0.113857 37.7207 -0.805142 47.0515 0.985454 56.0534C2.77605 65.0553 7.19582 73.3242 13.6858 79.8142C20.1759 86.3042 28.4447 90.724 37.4466 92.5146C46.4485 94.3052 55.7793 93.3862 64.2589 89.8738C72.7386 86.3614 79.9862 80.4134 85.0854 72.7819C90.1846 65.1505 92.9063 56.1783 92.9063 47C92.8926 34.6965 87.999 22.9008 79.2991 14.2009C70.5992 5.501 58.8035 0.607398 46.5 0.59375ZM46.5 83.0938C39.3614 83.0938 32.383 80.9769 26.4474 77.0109C20.5118 73.0448 15.8856 67.4077 13.1537 60.8125C10.4219 54.2172 9.70712 46.96 11.0998 39.9585C12.4925 32.957 15.9301 26.5257 20.9779 21.4779C26.0257 16.4301 32.457 12.9925 39.4585 11.5998C46.46 10.2071 53.7172 10.9219 60.3125 13.6537C66.9078 16.3856 72.5448 21.0118 76.5109 26.9474C80.4769 32.883 82.5938 39.8613 82.5938 47C82.5835 56.5695 78.7775 65.7442 72.0108 72.5108C65.2442 79.2775 56.0695 83.0835 46.5 83.0938ZM75.7188 47C75.7188 48.3675 75.1755 49.679 74.2085 50.646C73.2416 51.613 71.93 52.1562 70.5625 52.1562H46.5C45.1325 52.1562 43.821 51.613 42.854 50.646C41.887 49.679 41.3438 48.3675 41.3438 47V22.9375C41.3438 21.57 41.887 20.2585 42.854 19.2915C43.821 18.3245 45.1325 17.7812 46.5 17.7812C47.8675 17.7812 49.1791 18.3245 50.146 19.2915C51.113 20.2585 51.6563 21.57 51.6563 22.9375V41.8438H70.5625C71.93 41.8438 73.2416 42.387 74.2085 43.354C75.1755 44.321 75.7188 45.6325 75.7188 47Z" fill="#E9C713"/>
</svg>
