<svg width="29" height="28" viewBox="0 0 29 28" fill="none" xmlns="http://www.w3.org/2000/svg">
<path d="M16.1484 14.0002L19.4489 10.7008C19.6678 10.4819 19.7908 10.185 19.7908 9.87541C19.7908 9.56582 19.6678 9.26891 19.4489 9.05C19.2299 8.83108 18.933 8.7081 18.6234 8.7081C18.3139 8.7081 18.0169 8.83108 17.798 9.05L14.4987 12.3505L11.1994 9.05C10.9804 8.83108 10.6835 8.7081 10.3739 8.7081C10.0644 8.7081 9.76745 8.83108 9.54853 9.05C9.32962 9.26891 9.20663 9.56582 9.20663 9.87541C9.20663 10.185 9.32962 10.4819 9.54853 10.7008L12.849 14.0002L9.54853 17.2995C9.32962 17.5184 9.20663 17.8153 9.20663 18.1249C9.20663 18.4345 9.32962 18.7314 9.54853 18.9503C9.76745 19.1692 10.0644 19.2922 10.3739 19.2922C10.6835 19.2922 10.9804 19.1692 11.1994 18.9503L14.4987 15.6498L17.798 18.9503C18.0169 19.1692 18.3139 19.2922 18.6234 19.2922C18.933 19.2922 19.2299 19.1692 19.4489 18.9503C19.6678 18.7314 19.7908 18.4345 19.7908 18.1249C19.7908 17.8153 19.6678 17.5184 19.4489 17.2995L16.1484 14.0002ZM14.4987 25.6668C8.0552 25.6668 2.83203 20.4437 2.83203 14.0002C2.83203 7.55666 8.0552 2.3335 14.4987 2.3335C20.9422 2.3335 26.1654 7.55666 26.1654 14.0002C26.1654 20.4437 20.9422 25.6668 14.4987 25.6668Z" fill="#F28088"/>
</svg>
