<svg width="13" height="13" viewBox="0 0 13 13" fill="none" xmlns="http://www.w3.org/2000/svg">
<path d="M3.16602 4.9445C3.16602 4.47295 3.35334 4.02071 3.68678 3.68727C4.02022 3.35383 4.47246 3.1665 4.94402 3.1665H10.7213C10.9548 3.1665 11.186 3.21249 11.4018 3.30185C11.6175 3.3912 11.8135 3.52217 11.9786 3.68727C12.1437 3.85237 12.2747 4.04838 12.364 4.26409C12.4534 4.47981 12.4993 4.71101 12.4993 4.9445V10.7218C12.4993 10.9553 12.4534 11.1865 12.364 11.4022C12.2747 11.618 12.1437 11.814 11.9786 11.9791C11.8135 12.1442 11.6175 12.2751 11.4018 12.3645C11.186 12.4538 10.9548 12.4998 10.7213 12.4998H4.94402C4.71053 12.4998 4.47932 12.4538 4.2636 12.3645C4.04789 12.2751 3.85188 12.1442 3.68678 11.9791C3.52168 11.814 3.39071 11.618 3.30136 11.4022C3.21201 11.1865 3.16602 10.9553 3.16602 10.7218V4.9445Z" stroke="#A0A3BD" stroke-linecap="round" stroke-linejoin="round"/>
<path d="M1.17467 9.658C0.970228 9.54145 0.800182 9.373 0.681717 9.16966C0.563252 8.96633 0.500567 8.73533 0.5 8.5V1.83333C0.5 1.1 1.1 0.5 1.83333 0.5H8.5C9 0.5 9.272 0.756667 9.5 1.16667" stroke="#A0A3BD" stroke-linecap="round" stroke-linejoin="round"/>
</svg>
