<svg width="26" height="22" viewBox="0 0 26 22" fill="none" xmlns="http://www.w3.org/2000/svg">
<mask id="mask0_3706_13395" style="mask-type:luminance" maskUnits="userSpaceOnUse" x="0" y="0" width="26" height="22">
<path d="M24.6667 15.0833C24.6667 18.3051 22.0551 20.9167 18.8333 20.9167C17.7892 20.9167 16.808 20.6425 15.9598 20.1613C15.0616 19.6521 14.3144 18.9139 13.7944 18.0219C13.2745 17.1298 13.0003 16.1159 13 15.0833C13 13.5853 13.5647 12.2192 14.4922 11.1867C15.0387 10.5765 15.7079 10.0885 16.456 9.75481C17.2041 9.42108 18.0142 9.24906 18.8333 9.25C22.0551 9.25 24.6667 11.8616 24.6667 15.0833Z" fill="white" stroke="white" stroke-width="1.66667" stroke-linecap="round" stroke-linejoin="round"/>
<path d="M18.834 4V9.25C18.0148 9.24905 17.2047 9.42107 16.4566 9.75481C15.7085 10.0885 15.0393 10.5765 14.4928 11.1867C13.5302 12.2561 12.9985 13.6445 13.0007 15.0833C13.001 16.1158 13.2751 17.1298 13.7951 18.0218C14.315 18.9139 15.0622 19.6521 15.9605 20.1613C14.4077 20.6308 12.3462 20.9167 10.084 20.9167C5.25165 20.9167 1.33398 19.6106 1.33398 18V4" stroke="white" stroke-width="1.66667" stroke-linecap="round" stroke-linejoin="round"/>
<path d="M18.834 3.99992C18.834 5.6105 14.9163 6.91658 10.084 6.91658C5.25165 6.91658 1.33398 5.6105 1.33398 3.99992C1.33398 2.38934 5.25165 1.08325 10.084 1.08325C14.9163 1.08325 18.834 2.38934 18.834 3.99992Z" fill="white" stroke="white" stroke-width="1.66667" stroke-linecap="round" stroke-linejoin="round"/>
<path d="M1.33398 13.3332C1.33398 14.9438 5.25165 16.2498 10.084 16.2498C11.1381 16.2498 12.149 16.188 13.0847 16.0737M1.33398 8.6665C1.33398 10.2771 5.25165 11.5832 10.084 11.5832C11.6917 11.5832 13.1984 11.4385 14.4928 11.1865" stroke="white" stroke-width="1.66667" stroke-linecap="round" stroke-linejoin="round"/>
<path d="M21.4583 13.9165L18.25 17.1248L16.5 15.3748" stroke="black" stroke-width="1.66667" stroke-linecap="round" stroke-linejoin="round"/>
</mask>
<g mask="url(#mask0_3706_13395)">
<path d="M-1 -3H27V25H-1V-3Z" fill="#E8B61A"/>
</g>
</svg>
