<svg width="28" height="28" viewBox="0 0 28 28" fill="none" xmlns="http://www.w3.org/2000/svg">
<mask id="mask0_565_2340" style="mask-type:luminance" maskUnits="userSpaceOnUse" x="1" y="3" width="26" height="22">
<path d="M25.6667 18.0833C25.6667 21.3051 23.0551 23.9167 19.8333 23.9167C18.7892 23.9167 17.808 23.6425 16.9598 23.1613C16.0616 22.6521 15.3144 21.9139 14.7944 21.0219C14.2745 20.1298 14.0003 19.1159 14 18.0833C14 16.5853 14.5647 15.2192 15.4922 14.1867C16.0387 13.5765 16.7079 13.0885 17.456 12.7548C18.2041 12.4211 19.0142 12.2491 19.8333 12.25C23.0551 12.25 25.6667 14.8616 25.6667 18.0833Z" fill="white" stroke="white" stroke-width="1.66667" stroke-linecap="round" stroke-linejoin="round"/>
<path d="M19.834 7V12.25C19.0148 12.2491 18.2047 12.4211 17.4566 12.7548C16.7085 13.0885 16.0393 13.5765 15.4928 14.1867C14.5302 15.2561 13.9985 16.6445 14.0007 18.0833C14.001 19.1158 14.2751 20.1298 14.7951 21.0218C15.315 21.9139 16.0622 22.6521 16.9605 23.1613C15.4077 23.6308 13.3462 23.9167 11.084 23.9167C6.25165 23.9167 2.33398 22.6106 2.33398 21V7" stroke="white" stroke-width="1.66667" stroke-linecap="round" stroke-linejoin="round"/>
<path d="M19.834 6.99992C19.834 8.6105 15.9163 9.91658 11.084 9.91658C6.25165 9.91658 2.33398 8.6105 2.33398 6.99992C2.33398 5.38934 6.25165 4.08325 11.084 4.08325C15.9163 4.08325 19.834 5.38934 19.834 6.99992Z" fill="white" stroke="white" stroke-width="1.66667" stroke-linecap="round" stroke-linejoin="round"/>
<path d="M2.33398 16.3332C2.33398 17.9438 6.25165 19.2498 11.084 19.2498C12.1381 19.2498 13.149 19.188 14.0847 19.0737M2.33398 11.6665C2.33398 13.2771 6.25165 14.5832 11.084 14.5832C12.6917 14.5832 14.1984 14.4385 15.4928 14.1865" stroke="white" stroke-width="1.66667" stroke-linecap="round" stroke-linejoin="round"/>
<path d="M22.4583 16.9165L19.25 20.1248L17.5 18.3748" stroke="black" stroke-width="1.66667" stroke-linecap="round" stroke-linejoin="round"/>
</mask>
<g mask="url(#mask0_565_2340)">
<path d="M0 0H28V28H0V0Z" fill="#F28088"/>
</g>
<circle cx="20.5" cy="18" r="6" fill="white"/>
<path d="M21.3218 18.333L23.3021 16.3534C23.4335 16.2221 23.5073 16.0439 23.5073 15.8582C23.5073 15.6724 23.4335 15.4943 23.3021 15.3629C23.1708 15.2316 22.9926 15.1578 22.8069 15.1578C22.6211 15.1578 22.443 15.2316 22.3116 15.3629L20.332 17.3432L18.3524 15.3629C18.2211 15.2316 18.0429 15.1578 17.8572 15.1578C17.6714 15.1578 17.4933 15.2316 17.3619 15.3629C17.2306 15.4943 17.1568 15.6724 17.1568 15.8582C17.1568 16.0439 17.2306 16.2221 17.3619 16.3534L19.3422 18.333L17.3619 20.3126C17.2306 20.444 17.1568 20.6221 17.1568 20.8079C17.1568 20.9936 17.2306 21.1718 17.3619 21.3031C17.4933 21.4345 17.6714 21.5082 17.8572 21.5082C18.0429 21.5082 18.2211 21.4345 18.3524 21.3031L20.332 19.3228L22.3116 21.3031C22.443 21.4345 22.6211 21.5082 22.8069 21.5082C22.9926 21.5082 23.1708 21.4345 23.3021 21.3031C23.4335 21.1718 23.5073 20.9936 23.5073 20.8079C23.5073 20.6221 23.4335 20.444 23.3021 20.3126L21.3218 18.333ZM20.332 25.333C16.4659 25.333 13.332 22.1991 13.332 18.333C13.332 14.4669 16.4659 11.333 20.332 11.333C24.1981 11.333 27.332 14.4669 27.332 18.333C27.332 22.1991 24.1981 25.333 20.332 25.333Z" fill="#F28088"/>
</svg>
