<svg width="28" height="28" viewBox="0 0 28 28" fill="none" xmlns="http://www.w3.org/2000/svg">
<mask id="mask0_565_2281" style="mask-type:luminance" maskUnits="userSpaceOnUse" x="1" y="3" width="26" height="22">
<path d="M25.6667 18.0833C25.6667 21.3051 23.0551 23.9167 19.8333 23.9167C18.7892 23.9167 17.808 23.6425 16.9598 23.1613C16.0616 22.6521 15.3144 21.9139 14.7944 21.0219C14.2745 20.1298 14.0003 19.1159 14 18.0833C14 16.5853 14.5647 15.2192 15.4922 14.1867C16.0387 13.5765 16.7079 13.0885 17.456 12.7548C18.2041 12.4211 19.0142 12.2491 19.8333 12.25C23.0551 12.25 25.6667 14.8616 25.6667 18.0833Z" fill="white" stroke="white" stroke-width="1.66667" stroke-linecap="round" stroke-linejoin="round"/>
<path d="M19.834 7V12.25C19.0148 12.2491 18.2047 12.4211 17.4566 12.7548C16.7085 13.0885 16.0393 13.5765 15.4928 14.1867C14.5302 15.2561 13.9985 16.6445 14.0007 18.0833C14.001 19.1158 14.2751 20.1298 14.7951 21.0218C15.315 21.9139 16.0622 22.6521 16.9605 23.1613C15.4077 23.6308 13.3462 23.9167 11.084 23.9167C6.25165 23.9167 2.33398 22.6106 2.33398 21V7" stroke="white" stroke-width="1.66667" stroke-linecap="round" stroke-linejoin="round"/>
<path d="M19.834 6.99992C19.834 8.6105 15.9163 9.91658 11.084 9.91658C6.25165 9.91658 2.33398 8.6105 2.33398 6.99992C2.33398 5.38934 6.25165 4.08325 11.084 4.08325C15.9163 4.08325 19.834 5.38934 19.834 6.99992Z" fill="white" stroke="white" stroke-width="1.66667" stroke-linecap="round" stroke-linejoin="round"/>
<path d="M2.33398 16.3332C2.33398 17.9438 6.25165 19.2498 11.084 19.2498C12.1381 19.2498 13.149 19.188 14.0847 19.0737M2.33398 11.6665C2.33398 13.2771 6.25165 14.5832 11.084 14.5832C12.6917 14.5832 14.1984 14.4385 15.4928 14.1865" stroke="white" stroke-width="1.66667" stroke-linecap="round" stroke-linejoin="round"/>
<path d="M22.4583 16.9165L19.25 20.1248L17.5 18.3748" stroke="black" stroke-width="1.66667" stroke-linecap="round" stroke-linejoin="round"/>
</mask>
<g mask="url(#mask0_565_2281)">
<path d="M0 0H28V28H0V0Z" fill="#3AC271"/>
</g>
</svg>
