<svg width="12" height="13" viewBox="0 0 12 13" fill="none" xmlns="http://www.w3.org/2000/svg">
<path d="M6 1.5C3.24 1.5 1 3.74 1 6.5C1 9.26 3.24 11.5 6 11.5C8.76 11.5 11 9.26 11 6.5C11 3.74 8.76 1.5 6 1.5ZM4.645 8.645L2.85 6.85C2.80371 6.80371 2.76699 6.74875 2.74194 6.68827C2.71688 6.62779 2.70399 6.56297 2.70399 6.4975C2.70399 6.43203 2.71688 6.36721 2.74194 6.30673C2.76699 6.24625 2.80371 6.19129 2.85 6.145C2.89629 6.09871 2.95125 6.06199 3.01173 6.03694C3.07221 6.01188 3.13703 5.99899 3.2025 5.99899C3.26797 5.99899 3.33279 6.01188 3.39327 6.03694C3.45375 6.06199 3.50871 6.09871 3.555 6.145L5 7.585L8.44 4.145C8.53349 4.05151 8.66029 3.99899 8.7925 3.99899C8.92471 3.99899 9.05151 4.05151 9.145 4.145C9.23849 4.23849 9.29101 4.36529 9.29101 4.4975C9.29101 4.62971 9.23849 4.75651 9.145 4.85L5.35 8.645C5.30374 8.69135 5.2488 8.72813 5.18831 8.75322C5.12783 8.77831 5.06298 8.79122 4.9975 8.79122C4.93202 8.79122 4.86717 8.77831 4.80669 8.75322C4.7462 8.72813 4.69126 8.69135 4.645 8.645Z" fill="#19C85F"/>
</svg>
