<svg width="93" height="94" viewBox="0 0 93 94" fill="none" xmlns="http://www.w3.org/2000/svg">
<path d="M67.3356 33.0395C67.8163 33.5185 68.1977 34.0877 68.4579 34.7145C68.7182 35.3412 68.8521 36.0132 68.8521 36.6918C68.8521 37.3704 68.7182 38.0424 68.4579 38.6691C68.1977 39.2959 67.8163 39.8651 67.3356 40.3441L43.2731 64.4066C42.794 64.8873 42.2248 65.2687 41.5981 65.529C40.9713 65.7892 40.2994 65.9232 39.6207 65.9232C38.9421 65.9232 38.2701 65.7892 37.6434 65.529C37.0166 65.2687 36.4474 64.8873 35.9684 64.4066L25.6559 54.0941C25.1762 53.6145 24.7958 53.0451 24.5362 52.4184C24.2766 51.7918 24.143 51.1201 24.143 50.4418C24.143 49.7635 24.2766 49.0918 24.5362 48.4652C24.7958 47.8385 25.1762 47.2691 25.6559 46.7895C26.1355 46.3098 26.7049 45.9294 27.3316 45.6698C27.9583 45.4102 28.6299 45.2766 29.3082 45.2766C29.9865 45.2766 30.6582 45.4102 31.2849 45.6698C31.9115 45.9294 32.4809 46.3098 32.9606 46.7895L39.625 53.4453L60.0395 33.0266C60.5192 32.548 61.0885 32.1687 61.715 31.9103C62.3414 31.6519 63.0126 31.5195 63.6902 31.5207C64.3678 31.5219 65.0385 31.6567 65.664 31.9173C66.2895 32.1779 66.8575 32.5592 67.3356 33.0395ZM92.9063 47C92.9063 56.1783 90.1846 65.1505 85.0854 72.7819C79.9862 80.4134 72.7386 86.3614 64.2589 89.8738C55.7793 93.3862 46.4485 94.3052 37.4466 92.5146C28.4447 90.724 20.1759 86.3042 13.6858 79.8142C7.19582 73.3242 2.77605 65.0553 0.985454 56.0534C-0.805142 47.0515 0.113857 37.7207 3.62624 29.2411C7.13862 20.7615 13.0866 13.5138 20.7181 8.41461C28.3496 3.31543 37.3217 0.59375 46.5 0.59375C58.8035 0.607398 70.5992 5.501 79.2991 14.2009C87.999 22.9008 92.8926 34.6965 92.9063 47ZM82.5938 47C82.5938 39.8613 80.4769 32.883 76.5109 26.9474C72.5448 21.0118 66.9078 16.3856 60.3125 13.6537C53.7172 10.9219 46.46 10.2071 39.4585 11.5998C32.457 12.9925 26.0257 16.4301 20.9779 21.4779C15.9301 26.5257 12.4925 32.957 11.0998 39.9585C9.70712 46.96 10.4219 54.2172 13.1537 60.8125C15.8856 67.4077 20.5118 73.0448 26.4474 77.0109C32.383 80.9769 39.3614 83.0938 46.5 83.0938C56.0695 83.0835 65.2442 79.2775 72.0108 72.5108C78.7775 65.7442 82.5835 56.5695 82.5938 47Z" fill="#149409"/>
</svg>
