<svg width="20" height="20" viewBox="0 0 20 20" fill="none" xmlns="http://www.w3.org/2000/svg">
<path d="M9.375 13.75L8.49375 14.6313L10.1062 16.25H2.5V5H1.25V16.25C1.25 16.9394 1.81062 17.5 2.5 17.5H10.1062L8.49375 19.1187L9.375 20L12.5 16.875L9.375 13.75Z" fill="#DB4C45"/>
<path d="M6.875 10.625C7.22018 10.625 7.5 10.3452 7.5 10C7.5 9.65482 7.22018 9.375 6.875 9.375C6.52982 9.375 6.25 9.65482 6.25 10C6.25 10.3452 6.52982 10.625 6.875 10.625Z" fill="#DB4C45"/>
<path d="M15 12.5H5C4.31062 12.5 3.75 11.9394 3.75 11.25V8.75C3.75 8.06062 4.31062 7.5 5 7.5H15C15.6894 7.5 16.25 8.06062 16.25 8.75V11.25C16.25 11.9394 15.6894 12.5 15 12.5ZM5 8.75V11.25H15V8.75H5Z" fill="#DB4C45"/>
<path d="M17.5 2.5H9.89375L11.5062 0.88125L10.625 0L7.5 3.125L10.625 6.25L11.5062 5.36875L9.89375 3.75H17.5V15H18.75V3.75C18.75 3.06125 18.1894 2.5 17.5 2.5Z" fill="#DB4C45"/>
</svg>
