<svg width="18" height="16" viewBox="0 0 18 16" fill="none" xmlns="http://www.w3.org/2000/svg">
<path d="M10.5482 0.499979C6.30649 0.383312 2.83149 3.79165 2.83149 7.99998H1.33982C0.96482 7.99998 0.781487 8.44998 1.04815 8.70831L3.37315 11.0416C3.53982 11.2083 3.79815 11.2083 3.96482 11.0416L6.28982 8.70831C6.34741 8.64957 6.38631 8.57509 6.40164 8.49427C6.41697 8.41344 6.40802 8.32989 6.37594 8.25414C6.34386 8.17839 6.29007 8.11383 6.22136 8.0686C6.15265 8.02337 6.07208 7.9995 5.98982 7.99998H4.49815C4.49815 4.74998 7.14815 2.12498 10.4148 2.16665C13.5148 2.20831 16.1232 4.81665 16.1648 7.91665C16.2065 11.175 13.5815 13.8333 10.3315 13.8333C8.98982 13.8333 7.74815 13.375 6.76482 12.6C6.60521 12.4742 6.40494 12.4116 6.20213 12.4239C5.99931 12.4361 5.80808 12.5226 5.66482 12.6666C5.31482 13.0166 5.33982 13.6083 5.73149 13.9083C7.04076 14.9437 8.6623 15.5048 10.3315 15.5C14.5398 15.5 17.9482 12.025 17.8315 7.78331C17.7232 3.87498 14.4565 0.608312 10.5482 0.499979ZM10.1232 4.66665C9.78149 4.66665 9.49815 4.94998 9.49815 5.29165V8.35831C9.49815 8.64998 9.65649 8.92498 9.90649 9.07498L12.5065 10.6166C12.8065 10.7916 13.1898 10.6916 13.3648 10.4C13.5398 10.1 13.4398 9.71665 13.1482 9.54165L10.7482 8.11665V5.28331C10.7482 4.94998 10.4648 4.66665 10.1232 4.66665Z" fill="#807A7A"/>
</svg>
