<svg width="29" height="28" viewBox="0 0 29 28" fill="none" xmlns="http://www.w3.org/2000/svg">
<path d="M14.5 2.3335C11.4436 2.34135 8.5119 3.54628 6.33333 5.69V3.50016C6.33333 3.19074 6.21042 2.894 5.99162 2.6752C5.77283 2.45641 5.47609 2.3335 5.16667 2.3335C4.85725 2.3335 4.5605 2.45641 4.34171 2.6752C4.12292 2.894 4 3.19074 4 3.50016V8.75016C4 9.05958 4.12292 9.35633 4.34171 9.57512C4.5605 9.79391 4.85725 9.91683 5.16667 9.91683H10.4167C10.7261 9.91683 11.0228 9.79391 11.2416 9.57512C11.4604 9.35633 11.5833 9.05958 11.5833 8.75016C11.5833 8.44074 11.4604 8.144 11.2416 7.9252C11.0228 7.70641 10.7261 7.5835 10.4167 7.5835H7.75433C8.8182 6.465 10.1431 5.62813 11.6102 5.148C13.0773 4.66786 14.6406 4.55948 16.1599 4.83258C17.6792 5.10569 19.1069 5.75172 20.315 6.71272C21.523 7.67372 22.4735 8.91961 23.0813 10.3386C23.689 11.7576 23.935 13.3052 23.797 14.8427C23.6591 16.3802 23.1416 17.8594 22.2909 19.1475C21.4403 20.4356 20.2832 21.4924 18.9234 22.223C17.5636 22.9536 16.0436 23.3352 14.5 23.3335C14.1906 23.3335 13.8938 23.4564 13.675 23.6752C13.4562 23.894 13.3333 24.1907 13.3333 24.5002C13.3333 24.8096 13.4562 25.1063 13.675 25.3251C13.8938 25.5439 14.1906 25.6668 14.5 25.6668C17.5942 25.6668 20.5617 24.4377 22.7496 22.2497C24.9375 20.0618 26.1667 17.0944 26.1667 14.0002C26.1667 10.906 24.9375 7.93851 22.7496 5.75058C20.5617 3.56266 17.5942 2.3335 14.5 2.3335Z" fill="#E8B61A"/>
<path d="M16.832 15.1668H14.4987C14.1893 15.1668 13.8925 15.0439 13.6737 14.8251C13.4549 14.6063 13.332 14.3096 13.332 14.0002V10.5002C13.332 10.1907 13.4549 9.894 13.6737 9.67521C13.8925 9.45641 14.1893 9.3335 14.4987 9.3335C14.8081 9.3335 15.1049 9.45641 15.3237 9.67521C15.5424 9.894 15.6654 10.1907 15.6654 10.5002V12.8335H16.832C17.1414 12.8335 17.4382 12.9564 17.657 13.1752C17.8758 13.394 17.9987 13.6907 17.9987 14.0002C17.9987 14.3096 17.8758 14.6063 17.657 14.8251C17.4382 15.0439 17.1414 15.1668 16.832 15.1668Z" fill="#E8B61A"/>
<path opacity="0.5" d="M14.4989 4.6665C13.2357 4.67139 11.9866 4.93238 10.8272 5.43369C9.66774 5.93501 8.622 6.66624 7.75319 7.58317H10.4155C10.7249 7.58317 11.0217 7.70609 11.2405 7.92488C11.4593 8.14367 11.5822 8.44042 11.5822 8.74984C11.5822 9.05926 11.4593 9.356 11.2405 9.57479C11.0217 9.79359 10.7249 9.9165 10.4155 9.9165H5.16552C4.88293 9.91451 4.61089 9.80888 4.40101 9.61964C4.19113 9.4304 4.05799 9.17072 4.02685 8.88984C3.15309 10.6665 2.74696 12.6367 2.84686 14.614C2.94676 16.5914 3.54939 18.5106 4.59776 20.1901C5.64613 21.8697 7.10559 23.254 8.83812 24.2123C10.5706 25.1706 12.519 25.6711 14.4989 25.6665C14.1894 25.6665 13.8927 25.5436 13.6739 25.3248C13.4551 25.106 13.3322 24.8093 13.3322 24.4998C13.3322 24.1904 13.4551 23.8937 13.6739 23.6749C13.8927 23.4561 14.1894 23.3332 14.4989 23.3332C16.9742 23.3332 19.3482 22.3498 21.0985 20.5995C22.8489 18.8492 23.8322 16.4752 23.8322 13.9998C23.8322 11.5245 22.8489 9.15051 21.0985 7.40017C19.3482 5.64983 16.9742 4.6665 14.4989 4.6665ZM16.8322 15.1665H14.4989C14.1894 15.1665 13.8927 15.0436 13.6739 14.8248C13.4551 14.606 13.3322 14.3093 13.3322 13.9998V10.4998C13.3322 10.1904 13.4551 9.89367 13.6739 9.67488C13.8927 9.45609 14.1894 9.33317 14.4989 9.33317C14.8083 9.33317 15.105 9.45609 15.3238 9.67488C15.5426 9.89367 15.6655 10.1904 15.6655 10.4998V12.8332H16.8322C17.1416 12.8332 17.4384 12.9561 17.6571 13.1749C17.8759 13.3937 17.9989 13.6904 17.9989 13.9998C17.9989 14.3093 17.8759 14.606 17.6571 14.8248C17.4384 15.0436 17.1416 15.1665 16.8322 15.1665Z" fill="#E8B61A"/>
</svg>
