<svg width="16" height="19" viewBox="0 0 16 19" fill="none" xmlns="http://www.w3.org/2000/svg">
<path d="M9.79674 1.13621C8.81432 0.121591 7.18708 0.121589 6.20466 1.1362L1.40619 6.09194C1.13061 6.37655 0.94542 6.73636 0.873963 7.12604C0.291204 10.304 0.248187 13.5575 0.746721 16.7497L0.923223 17.8799C0.978972 18.2369 1.28644 18.5001 1.64774 18.5001H5.0007C5.27685 18.5001 5.5007 18.2762 5.5007 18.0001V11.0001H10.5007V18.0001C10.5007 18.2762 10.7246 18.5001 11.0007 18.5001H14.3536C14.7149 18.5001 15.0224 18.2369 15.0781 17.8799L15.2546 16.7497C15.7532 13.5575 15.7102 10.304 15.1274 7.12604C15.0559 6.73636 14.8708 6.37655 14.5952 6.09194L9.79674 1.13621Z" fill="#333333" fill-opacity="0.4"/>
</svg>
