<svg width="16" height="17" viewBox="0 0 16 17" fill="none" xmlns="http://www.w3.org/2000/svg">
<path d="M7.36341 0.63793C7.54757 0.502186 7.77035 0.428955 7.99913 0.428955C8.22791 0.428955 8.45068 0.502186 8.63484 0.63793L15.4184 5.6415C16.2213 6.23436 15.8456 7.48293 14.8898 7.57007H1.10841C0.152699 7.48293 -0.222301 6.23436 0.579842 5.6415L7.36413 0.63793M7.99913 5.42793C8.28329 5.42793 8.55581 5.31505 8.75674 5.11412C8.95767 4.91318 9.07056 4.64066 9.07056 4.3565C9.07056 4.07234 8.95767 3.79982 8.75674 3.59889C8.55581 3.39795 8.28329 3.28507 7.99913 3.28507C7.71497 3.28507 7.44245 3.39795 7.24151 3.59889C7.04058 3.79982 6.9277 4.07234 6.9277 4.3565C6.9277 4.64066 7.04058 4.91318 7.24151 5.11412C7.44245 5.31505 7.71497 5.42793 7.99913 5.42793ZM11.9277 8.28507H13.7127V12.5708H11.927L11.9277 8.28507ZM10.4984 12.5708V8.28507H8.71341V12.5708H10.4984ZM7.28484 12.5715V8.28579H5.49913V12.5715H7.28484ZM4.07127 12.5715V8.28579H2.28556V12.5715H4.07127ZM2.46413 13.2858C1.84845 13.2858 1.25798 13.5304 0.82263 13.9657C0.387277 14.4011 0.142699 14.9915 0.142699 15.6072V15.9644C0.142887 16.1064 0.199367 16.2427 0.299771 16.3432C0.400176 16.4437 0.536325 16.5004 0.678413 16.5008H15.3191C15.4612 16.5008 15.5975 16.4443 15.6979 16.3439C15.7984 16.2434 15.8548 16.1072 15.8548 15.9651V15.6079C15.8548 14.9922 15.6103 14.4018 15.1749 13.9664C14.7396 13.5311 14.1491 13.2865 13.5334 13.2865H2.46484" fill="#333333" fill-opacity="0.4"/>
</svg>
