<svg width="20" height="20" viewBox="0 0 20 20" fill="none" xmlns="http://www.w3.org/2000/svg">
<path d="M10 13.3333C10.8841 13.3333 11.7319 12.9821 12.357 12.357C12.9821 11.7319 13.3333 10.8841 13.3333 10C13.3333 9.11594 12.9821 8.2681 12.357 7.64298C11.7319 7.01786 10.8841 6.66667 10 6.66667C9.11594 6.66667 8.2681 7.01786 7.64298 7.64298C7.01786 8.2681 6.66667 9.11594 6.66667 10C6.66667 10.8841 7.01786 11.7319 7.64298 12.357C8.2681 12.9821 9.11594 13.3333 10 13.3333ZM9.16667 3.38333V0.833333C9.16667 0.61232 9.25446 0.400358 9.41074 0.244078C9.56702 0.0877974 9.77899 0 10 0C10.221 0 10.433 0.0877974 10.5893 0.244078C10.7455 0.400358 10.8333 0.61232 10.8333 0.833333V3.38333C12.3022 3.5689 13.6677 4.23793 14.7144 5.28502C15.7612 6.3321 16.4299 7.6977 16.615 9.16667H19.1667C19.3877 9.16667 19.5996 9.25446 19.7559 9.41074C19.9122 9.56702 20 9.77899 20 10C20 10.221 19.9122 10.433 19.7559 10.5893C19.5996 10.7455 19.3877 10.8333 19.1667 10.8333H16.615C16.4298 12.3025 15.7609 13.6683 14.7138 14.7155C13.6667 15.7626 12.3009 16.4314 10.8317 16.6167L10.8333 16.6667V19.1667C10.8333 19.3877 10.7455 19.5996 10.5893 19.7559C10.433 19.9122 10.221 20 10 20C9.77899 20 9.56702 19.9122 9.41074 19.7559C9.25446 19.5996 9.16667 19.3877 9.16667 19.1667V16.6167C7.69746 16.4314 6.33166 15.7626 5.28455 14.7155C4.23744 13.6683 3.56856 12.3025 3.38333 10.8333C3.36667 10.8338 3.35 10.8338 3.33333 10.8333H0.833333C0.61232 10.8333 0.400358 10.7455 0.244078 10.5893C0.0877974 10.433 0 10.221 0 10C0 9.77899 0.0877974 9.56702 0.244078 9.41074C0.400358 9.25446 0.61232 9.16667 0.833333 9.16667H3.33333C3.35 9.16617 3.36667 9.16617 3.38333 9.16667C3.56924 7.69806 4.23843 6.33303 5.28548 5.28658C6.33253 4.24013 7.69795 3.57173 9.16667 3.38667V3.38333ZM5 10C5 11.3261 5.52678 12.5979 6.46447 13.5355C7.40215 14.4732 8.67392 15 10 15C11.3261 15 12.5979 14.4732 13.5355 13.5355C14.4732 12.5979 15 11.3261 15 10C15 8.67392 14.4732 7.40215 13.5355 6.46447C12.5979 5.52678 11.3261 5 10 5C8.67392 5 7.40215 5.52678 6.46447 6.46447C5.52678 7.40215 5 8.67392 5 10Z" fill="#DB4C45"/>
</svg>
