<svg width="105" height="93" viewBox="0 0 105 93" fill="none" xmlns="http://www.w3.org/2000/svg">
<path d="M40.1448 83.0173C37.0165 80.2603 34.9571 76.4169 29.2426 71.8429C25.6041 68.9305 4.69329 68.7851 1.02946 45.2572C0.644891 42.7857 0.610731 40.194 0.892819 37.8205C5.44038 -0.417801 52.841 -11.5614 86.7918 13.1753C95.2985 19.3735 113.438 41.6088 98.7232 70.5559C88.568 90.5323 61.1383 101.515 40.1448 83.0173Z" fill="#E1F4FE"/>
<path d="M77.416 40.9167C78.4077 40.9167 79.3702 41.0334 80.3327 41.1792V32.1667C80.3327 30.6196 79.7181 29.1359 78.6241 28.042C77.5302 26.948 76.0464 26.3334 74.4993 26.3334H71.5827V20.5001C71.5827 12.4501 65.0493 5.91675 56.9993 5.91675C48.9493 5.91675 42.416 12.4501 42.416 20.5001V26.3334H39.4993C37.9523 26.3334 36.4685 26.948 35.3746 28.042C34.2806 29.1359 33.666 30.6196 33.666 32.1667V61.3334C33.666 64.5709 36.2618 67.1667 39.4993 67.1667H62.2785C60.791 64.6001 59.916 61.6251 59.916 58.4167C59.916 48.7626 67.7618 40.9167 77.416 40.9167ZM48.2493 20.5001C48.2493 15.6584 52.1577 11.7501 56.9993 11.7501C61.841 11.7501 65.7493 15.6584 65.7493 20.5001V26.3334H48.2493V20.5001ZM56.9993 52.5834C55.8456 52.5834 54.7178 52.2413 53.7585 51.6003C52.7992 50.9593 52.0516 50.0483 51.6101 48.9824C51.1685 47.9165 51.053 46.7436 51.2781 45.6121C51.5032 44.4805 52.0588 43.4411 52.8746 42.6253C53.6904 41.8095 54.7298 41.2539 55.8613 41.0288C56.9929 40.8038 58.1658 40.9193 59.2317 41.3608C60.2976 41.8023 61.2086 42.55 61.8496 43.5093C62.4906 44.4685 62.8327 45.5964 62.8327 46.7501C62.8327 49.9876 60.2368 52.5834 56.9993 52.5834ZM87.6243 53.3126L73.7702 67.1667L65.7493 58.4167L69.1327 55.0334L73.7702 59.6709L84.241 49.2001L87.6243 53.3126Z" fill="#109AE8"/>
</svg>
