<svg width="21" height="20" viewBox="0 0 21 20" fill="none" xmlns="http://www.w3.org/2000/svg">
<path d="M8.00065 4.16676C7.77964 4.16676 7.56768 4.25455 7.4114 4.41083C7.25512 4.56711 7.16732 4.77908 7.16732 5.00009C7.16732 5.2211 7.25512 5.43306 7.4114 5.58934C7.56768 5.74562 7.77964 5.83342 8.00065 5.83342C8.22166 5.83342 8.43363 5.74562 8.58991 5.58934C8.74619 5.43306 8.83398 5.2211 8.83398 5.00009C8.83398 4.77908 8.74619 4.56711 8.58991 4.41083C8.43363 4.25455 8.22166 4.16676 8.00065 4.16676ZM5.64232 4.16676C5.81449 3.67881 6.13377 3.25628 6.55615 2.95741C6.97853 2.65854 7.48322 2.49805 8.00065 2.49805C8.51808 2.49805 9.02277 2.65854 9.44515 2.95741C9.86754 3.25628 10.1868 3.67881 10.359 4.16676H16.334C16.555 4.16676 16.767 4.25455 16.9232 4.41083C17.0795 4.56711 17.1673 4.77908 17.1673 5.00009C17.1673 5.2211 17.0795 5.43306 16.9232 5.58934C16.767 5.74562 16.555 5.83342 16.334 5.83342H10.359C10.1868 6.32137 9.86754 6.74389 9.44515 7.04276C9.02277 7.34163 8.51808 7.50213 8.00065 7.50213C7.48322 7.50213 6.97853 7.34163 6.55615 7.04276C6.13377 6.74389 5.81449 6.32137 5.64232 5.83342H4.66732C4.4463 5.83342 4.23434 5.74562 4.07806 5.58934C3.92178 5.43306 3.83398 5.2211 3.83398 5.00009C3.83398 4.77908 3.92178 4.56711 4.07806 4.41083C4.23434 4.25455 4.4463 4.16676 4.66732 4.16676H5.64232ZM13.0007 9.16676C12.7796 9.16676 12.5677 9.25455 12.4114 9.41083C12.2551 9.56711 12.1673 9.77908 12.1673 10.0001C12.1673 10.2211 12.2551 10.4331 12.4114 10.5893C12.5677 10.7456 12.7796 10.8334 13.0007 10.8334C13.2217 10.8334 13.4336 10.7456 13.5899 10.5893C13.7462 10.4331 13.834 10.2211 13.834 10.0001C13.834 9.77908 13.7462 9.56711 13.5899 9.41083C13.4336 9.25455 13.2217 9.16676 13.0007 9.16676ZM10.6423 9.16676C10.8145 8.67881 11.1338 8.25628 11.5562 7.95741C11.9785 7.65854 12.4832 7.49805 13.0007 7.49805C13.5181 7.49805 14.0228 7.65854 14.4452 7.95741C14.8675 8.25628 15.1868 8.67881 15.359 9.16676H16.334C16.555 9.16676 16.767 9.25455 16.9232 9.41083C17.0795 9.56711 17.1673 9.77908 17.1673 10.0001C17.1673 10.2211 17.0795 10.4331 16.9232 10.5893C16.767 10.7456 16.555 10.8334 16.334 10.8334H15.359C15.1868 11.3214 14.8675 11.7439 14.4452 12.0428C14.0228 12.3416 13.5181 12.5021 13.0007 12.5021C12.4832 12.5021 11.9785 12.3416 11.5562 12.0428C11.1338 11.7439 10.8145 11.3214 10.6423 10.8334H4.66732C4.4463 10.8334 4.23434 10.7456 4.07806 10.5893C3.92178 10.4331 3.83398 10.2211 3.83398 10.0001C3.83398 9.77908 3.92178 9.56711 4.07806 9.41083C4.23434 9.25455 4.4463 9.16676 4.66732 9.16676H10.6423ZM8.00065 14.1668C7.77964 14.1668 7.56768 14.2546 7.4114 14.4108C7.25512 14.5671 7.16732 14.7791 7.16732 15.0001C7.16732 15.2211 7.25512 15.4331 7.4114 15.5893C7.56768 15.7456 7.77964 15.8334 8.00065 15.8334C8.22166 15.8334 8.43363 15.7456 8.58991 15.5893C8.74619 15.4331 8.83398 15.2211 8.83398 15.0001C8.83398 14.7791 8.74619 14.5671 8.58991 14.4108C8.43363 14.2546 8.22166 14.1668 8.00065 14.1668ZM5.64232 14.1668C5.81449 13.6788 6.13377 13.2563 6.55615 12.9574C6.97853 12.6585 7.48322 12.498 8.00065 12.498C8.51808 12.498 9.02277 12.6585 9.44515 12.9574C9.86754 13.2563 10.1868 13.6788 10.359 14.1668H16.334C16.555 14.1668 16.767 14.2546 16.9232 14.4108C17.0795 14.5671 17.1673 14.7791 17.1673 15.0001C17.1673 15.2211 17.0795 15.4331 16.9232 15.5893C16.767 15.7456 16.555 15.8334 16.334 15.8334H10.359C10.1868 16.3214 9.86754 16.7439 9.44515 17.0428C9.02277 17.3416 8.51808 17.5021 8.00065 17.5021C7.48322 17.5021 6.97853 17.3416 6.55615 17.0428C6.13377 16.7439 5.81449 16.3214 5.64232 15.8334H4.66732C4.4463 15.8334 4.23434 15.7456 4.07806 15.5893C3.92178 15.4331 3.83398 15.2211 3.83398 15.0001C3.83398 14.7791 3.92178 14.5671 4.07806 14.4108C4.23434 14.2546 4.4463 14.1668 4.66732 14.1668H5.64232Z" fill="#A0A3BD"/>
</svg>
