<svg width="105" height="93" viewBox="0 0 105 93" fill="none" xmlns="http://www.w3.org/2000/svg">
<path d="M40.1448 83.0173C37.0165 80.2603 34.9571 76.4169 29.2426 71.8429C25.6041 68.9305 4.69329 68.7851 1.02946 45.2572C0.644891 42.7857 0.610731 40.194 0.892819 37.8205C5.44038 -0.417801 52.841 -11.5614 86.7918 13.1753C95.2985 19.3735 113.438 41.6088 98.7232 70.5559C88.568 90.5323 61.1383 101.515 40.1448 83.0173Z" fill="#E1F4FE"/>
<path d="M38.2109 18.75H52.7943C53.9546 18.75 55.0674 19.2109 55.8879 20.0314C56.7083 20.8519 57.1693 21.9647 57.1693 23.125C57.1693 25.8324 56.0938 28.4289 54.1793 30.3434C52.2649 32.2578 49.6684 33.3333 46.9609 33.3333H44.0443C41.3369 33.3333 38.7403 32.2578 36.8259 30.3434C34.9115 28.4289 33.8359 25.8324 33.8359 23.125C33.8359 21.9647 34.2969 20.8519 35.1173 20.0314C35.9378 19.2109 37.0506 18.75 38.2109 18.75Z" stroke="#3D7FFE" stroke-width="3.5" stroke-linecap="round" stroke-linejoin="round"/>
<path d="M22.168 59.5833V56.6666C22.168 50.4782 24.6263 44.5433 29.0021 40.1674C33.378 35.7916 39.3129 33.3333 45.5013 33.3333C51.6897 33.3333 57.6246 35.7916 62.0005 40.1674C66.3763 44.5433 68.8346 50.4782 68.8346 56.6666V59.5833C68.8346 62.6774 67.6055 65.6449 65.4175 67.8328C63.2296 70.0208 60.2622 71.2499 57.168 71.2499H33.8346C30.7404 71.2499 27.773 70.0208 25.5851 67.8328C23.3971 65.6449 22.168 62.6774 22.168 59.5833Z" stroke="#3D7FFE" stroke-width="3.5" stroke-linecap="round" stroke-linejoin="round"/>
</svg>
