<svg width="15" height="16" viewBox="0 0 15 16" fill="none" xmlns="http://www.w3.org/2000/svg">
<path d="M7.50065 4.66683V1.3335M6.66732 11.3335H4.16732M2.08398 14.6668H12.9173C13.2488 14.6668 13.5668 14.5351 13.8012 14.3007C14.0356 14.0663 14.1673 13.7483 14.1673 13.4168V4.8635C14.1672 4.73416 14.1369 4.60663 14.079 4.491L12.9615 2.25516C12.823 1.97811 12.6101 1.74511 12.3467 1.58231C12.0832 1.41951 11.7795 1.33335 11.4698 1.3335H3.53148C3.22191 1.33351 2.91845 1.41974 2.65513 1.58253C2.39181 1.74532 2.17903 1.97823 2.04065 2.25516L0.922318 4.491C0.864365 4.60663 0.834123 4.73416 0.833984 4.8635V13.4168C0.833984 13.7483 0.96568 14.0663 1.2001 14.3007C1.43452 14.5351 1.75246 14.6668 2.08398 14.6668Z" stroke="#DB4C45" stroke-width="1.66667" stroke-linecap="round"/>
<path d="M1.66797 4.66699H13.3346" stroke="#DB4C45" stroke-width="1.66667" stroke-linecap="round" stroke-linejoin="round"/>
</svg>
