<svg width="19" height="17" viewBox="0 0 19 17" fill="none" xmlns="http://www.w3.org/2000/svg">
<path d="M13.0827 11.0167L15.116 12.1917L14.491 13.275L11.8327 11.7417V8.66671H13.0827V11.0167ZM18.4993 11.1667C18.4993 14.3917 15.891 17 12.666 17C9.44102 17 6.83268 14.3917 6.83268 11.1667C6.83268 10.8834 6.85768 10.6084 6.89935 10.3334H0.166016V0.333374H15.166V5.90004C17.1327 6.84171 18.4993 8.84171 18.4993 11.1667ZM7.39935 8.66671C7.54935 8.36671 7.70768 8.08337 7.89935 7.80837C7.82435 7.83337 7.74935 7.83337 7.66602 7.83337C6.28268 7.83337 5.16602 6.71671 5.16602 5.33337C5.16602 3.95004 6.28268 2.83337 7.66602 2.83337C9.04935 2.83337 10.166 3.95004 10.166 5.33337C10.166 5.54171 10.1327 5.75004 10.0827 5.94171C10.866 5.55837 11.741 5.33337 12.666 5.33337C12.9493 5.33337 13.2243 5.35837 13.4993 5.40004V3.66671C13.0573 3.66671 12.6334 3.49111 12.3208 3.17855C12.0083 2.86599 11.8327 2.44207 11.8327 2.00004H3.49935C3.49935 2.92504 2.75768 3.66671 1.83268 3.66671V7.00004C2.27471 7.00004 2.69863 7.17564 3.01119 7.4882C3.32375 7.80076 3.49935 8.22468 3.49935 8.66671H7.39935ZM16.8327 11.1667C16.8327 8.86671 14.966 7.00004 12.666 7.00004C10.366 7.00004 8.49935 8.86671 8.49935 11.1667C8.49935 13.4667 10.366 15.3334 12.666 15.3334C14.966 15.3334 16.8327 13.4667 16.8327 11.1667Z" fill="#FF716A"/>
</svg>
