<svg width="105" height="93" viewBox="0 0 105 93" fill="none" xmlns="http://www.w3.org/2000/svg">
<path d="M40.1448 83.0173C37.0165 80.2603 34.9571 76.4169 29.2426 71.8429C25.6041 68.9305 4.69329 68.7851 1.02946 45.2572C0.644891 42.7857 0.610731 40.194 0.892819 37.8205C5.44038 -0.417801 52.841 -11.5614 86.7918 13.1753C95.2985 19.3735 113.438 41.6088 98.7232 70.5559C88.568 90.5323 61.1383 101.515 40.1448 83.0173Z" fill="#E1F4FE"/>
<path d="M62.2305 49.75C61.6503 49.75 61.0939 49.9805 60.6837 50.3907C60.2734 50.8009 60.043 51.3573 60.043 51.9375C60.043 52.5177 60.2734 53.0741 60.6837 53.4843C61.0939 53.8945 61.6503 54.125 62.2305 54.125H70.9805C71.5606 54.125 72.117 53.8945 72.5273 53.4843C72.9375 53.0741 73.168 52.5177 73.168 51.9375C73.168 51.3573 72.9375 50.8009 72.5273 50.3907C72.117 49.9805 71.5606 49.75 70.9805 49.75H62.2305ZM20.668 30.0625C20.668 27.1617 21.8203 24.3797 23.8715 22.3285C25.9227 20.2773 28.7047 19.125 31.6055 19.125H70.9805C73.8813 19.125 76.6633 20.2773 78.7145 22.3285C80.7656 24.3797 81.918 27.1617 81.918 30.0625V51.9375C81.918 54.8383 80.7656 57.6203 78.7145 59.6715C76.6633 61.7227 73.8813 62.875 70.9805 62.875H31.6055C28.7047 62.875 25.9227 61.7227 23.8715 59.6715C21.8203 57.6203 20.668 54.8383 20.668 51.9375V30.0625ZM77.543 32.25V30.0625C77.543 28.322 76.8516 26.6528 75.6209 25.4221C74.3902 24.1914 72.721 23.5 70.9805 23.5H31.6055C29.865 23.5 28.1958 24.1914 26.9651 25.4221C25.7344 26.6528 25.043 28.322 25.043 30.0625V32.25H77.543ZM25.043 36.625V51.9375C25.043 53.678 25.7344 55.3472 26.9651 56.5779C28.1958 57.8086 29.865 58.5 31.6055 58.5H70.9805C72.721 58.5 74.3902 57.8086 75.6209 56.5779C76.8516 55.3472 77.543 53.678 77.543 51.9375V36.625H25.043Z" fill="#3D7FFE"/>
<circle cx="72.335" cy="57.335" r="13.335" fill="white"/>
<path d="M72.2923 43.6666C64.9323 43.6666 58.959 49.64 58.959 57C58.959 64.36 64.9323 70.3333 72.2923 70.3333C79.6523 70.3333 85.6256 64.36 85.6256 57C85.6256 49.64 79.6523 43.6666 72.2923 43.6666ZM68.679 62.72L63.8923 57.9333C63.7689 57.8098 63.671 57.6633 63.6041 57.502C63.5373 57.3407 63.503 57.1679 63.503 56.9933C63.503 56.8187 63.5373 56.6459 63.6041 56.4846C63.671 56.3233 63.7689 56.1767 63.8923 56.0533C64.0158 55.9298 64.1623 55.8319 64.3236 55.7651C64.4849 55.6983 64.6577 55.6639 64.8323 55.6639C65.0069 55.6639 65.1798 55.6983 65.341 55.7651C65.5023 55.8319 65.6489 55.9298 65.7723 56.0533L69.6257 59.8933L78.799 50.72C79.0483 50.4707 79.3864 50.3306 79.739 50.3306C80.0916 50.3306 80.4297 50.4707 80.679 50.72C80.9283 50.9693 81.0683 51.3074 81.0683 51.66C81.0683 52.0125 80.9283 52.3507 80.679 52.6L70.559 62.72C70.4356 62.8436 70.2891 62.9416 70.1278 63.0085C69.9665 63.0754 69.7936 63.1099 69.619 63.1099C69.4444 63.1099 69.2714 63.0754 69.1102 63.0085C68.9489 62.9416 68.8023 62.8436 68.679 62.72Z" fill="#3D7FFE"/>
</svg>
