<svg width="12" height="15" viewBox="0 0 12 15" fill="none" xmlns="http://www.w3.org/2000/svg">
<path fill-rule="evenodd" clip-rule="evenodd" d="M0.654349 0.821585C0.166016 1.30992 0.166016 2.09492 0.166016 3.66659V11.1666C0.166016 12.7383 0.166016 13.5233 0.654349 14.0116C1.14268 14.4999 1.92768 14.4999 3.49935 14.4999H8.49935C10.071 14.4999 10.856 14.4999 11.3443 14.0116C11.8327 13.5233 11.8327 12.7383 11.8327 11.1666V3.66659C11.8327 2.09492 11.8327 1.30992 11.3443 0.821585C10.856 0.333252 10.071 0.333252 8.49935 0.333252H3.49935C1.92768 0.333252 1.14268 0.333252 0.654349 0.821585ZM3.49935 3.66659C3.27834 3.66659 3.06637 3.75438 2.91009 3.91066C2.75381 4.06694 2.66602 4.2789 2.66602 4.49992C2.66602 4.72093 2.75381 4.93289 2.91009 5.08917C3.06637 5.24545 3.27834 5.33325 3.49935 5.33325H8.49935C8.72036 5.33325 8.93232 5.24545 9.0886 5.08917C9.24488 4.93289 9.33268 4.72093 9.33268 4.49992C9.33268 4.2789 9.24488 4.06694 9.0886 3.91066C8.93232 3.75438 8.72036 3.66659 8.49935 3.66659H3.49935ZM3.49935 6.99992C3.27834 6.99992 3.06637 7.08772 2.91009 7.244C2.75381 7.40028 2.66602 7.61224 2.66602 7.83325C2.66602 8.05427 2.75381 8.26623 2.91009 8.42251C3.06637 8.57879 3.27834 8.66658 3.49935 8.66658H8.49935C8.72036 8.66658 8.93232 8.57879 9.0886 8.42251C9.24488 8.26623 9.33268 8.05427 9.33268 7.83325C9.33268 7.61224 9.24488 7.40028 9.0886 7.244C8.93232 7.08772 8.72036 6.99992 8.49935 6.99992H3.49935ZM3.49935 10.3333C3.27834 10.3333 3.06637 10.421 2.91009 10.5773C2.75381 10.7336 2.66602 10.9456 2.66602 11.1666C2.66602 11.3876 2.75381 11.5996 2.91009 11.7558C3.06637 11.9121 3.27834 11.9999 3.49935 11.9999H6.83268C7.0537 11.9999 7.26566 11.9121 7.42194 11.7558C7.57822 11.5996 7.66602 11.3876 7.66602 11.1666C7.66602 10.9456 7.57822 10.7336 7.42194 10.5773C7.26566 10.421 7.0537 10.3333 6.83268 10.3333H3.49935Z" fill="#333333" fill-opacity="0.4"/>
</svg>
