<svg width="12" height="15" viewBox="0 0 12 15" fill="none" xmlns="http://www.w3.org/2000/svg">
<path fill-rule="evenodd" clip-rule="evenodd" d="M0.654349 0.821707C0.166016 1.31004 0.166016 2.09504 0.166016 3.66671V11.1667C0.166016 12.7384 0.166016 13.5234 0.654349 14.0117C1.14268 14.5 1.92768 14.5 3.49935 14.5H8.49935C10.071 14.5 10.856 14.5 11.3443 14.0117C11.8327 13.5234 11.8327 12.7384 11.8327 11.1667V3.66671C11.8327 2.09504 11.8327 1.31004 11.3443 0.821707C10.856 0.333374 10.071 0.333374 8.49935 0.333374H3.49935C1.92768 0.333374 1.14268 0.333374 0.654349 0.821707ZM3.49935 3.66671C3.27834 3.66671 3.06637 3.7545 2.91009 3.91079C2.75381 4.06707 2.66602 4.27903 2.66602 4.50004C2.66602 4.72105 2.75381 4.93302 2.91009 5.0893C3.06637 5.24558 3.27834 5.33337 3.49935 5.33337H8.49935C8.72036 5.33337 8.93232 5.24558 9.0886 5.0893C9.24488 4.93302 9.33268 4.72105 9.33268 4.50004C9.33268 4.27903 9.24488 4.06707 9.0886 3.91079C8.93232 3.7545 8.72036 3.66671 8.49935 3.66671H3.49935ZM3.49935 7.00004C3.27834 7.00004 3.06637 7.08784 2.91009 7.24412C2.75381 7.4004 2.66602 7.61236 2.66602 7.83337C2.66602 8.05439 2.75381 8.26635 2.91009 8.42263C3.06637 8.57891 3.27834 8.66671 3.49935 8.66671H8.49935C8.72036 8.66671 8.93232 8.57891 9.0886 8.42263C9.24488 8.26635 9.33268 8.05439 9.33268 7.83337C9.33268 7.61236 9.24488 7.4004 9.0886 7.24412C8.93232 7.08784 8.72036 7.00004 8.49935 7.00004H3.49935ZM3.49935 10.3334C3.27834 10.3334 3.06637 10.4212 2.91009 10.5775C2.75381 10.7337 2.66602 10.9457 2.66602 11.1667C2.66602 11.3877 2.75381 11.5997 2.91009 11.756C3.06637 11.9122 3.27834 12 3.49935 12H6.83268C7.0537 12 7.26566 11.9122 7.42194 11.756C7.57822 11.5997 7.66602 11.3877 7.66602 11.1667C7.66602 10.9457 7.57822 10.7337 7.42194 10.5775C7.26566 10.4212 7.0537 10.3334 6.83268 10.3334H3.49935Z" fill="#DB4C45"/>
</svg>
