<svg height="512" viewBox="0 0 24 24" width="512" xmlns="http://www.w3.org/2000/svg"><g id="Layer_2" data-name="Layer 2"><path d="m22.75 6v12a4.754 4.754 0 0 1 -4.75 4.75h-12a4.669 4.669 0 0 1 -1.55-.26 4.751 4.751 0 0 1 -3.2-4.49v-12a4.754 4.754 0 0 1 4.75-4.75h12a4.754 4.754 0 0 1 4.75 4.75z" fill="#e1f5fe"/><path d="m14.75 19v3.75h-8.75a4.669 4.669 0 0 1 -1.55-.26 4.751 4.751 0 0 1 -3.2-4.49v-2.73l3.16-2.11a2.736 2.736 0 0 1 3.17.09l3.49 2.62 3.38 2.53a.739.739 0 0 1 .3.6z" fill="#62d8b6"/><circle cx="8.625" cy="6.625" fill="#ffde76" r="2.5"/><path d="m22.75 13.04v4.96a4.754 4.754 0 0 1 -4.75 4.75h-12a4.669 4.669 0 0 1 -1.55-.26l11-11a2.739 2.739 0 0 1 3.17-.52z" fill="#4cc19d"/></g></svg>