<svg width="12" height="14" viewBox="0 0 12 14" fill="none" xmlns="http://www.w3.org/2000/svg">
<path fill-rule="evenodd" clip-rule="evenodd" d="M5.99916 13.1257L6.47992 12.584C7.02545 11.9593 7.51612 11.3665 7.95269 10.8027L8.31307 10.3273C9.81783 8.29983 10.5706 6.69069 10.5706 5.50136C10.5706 2.96269 8.52411 0.904785 5.99916 0.904785C3.47421 0.904785 1.42773 2.96269 1.42773 5.50136C1.42773 6.69069 2.1805 8.29983 3.68526 10.3273L4.04564 10.8027C4.66845 11.6007 5.32005 12.3751 5.99916 13.1257Z" stroke="#807A7A" stroke-linecap="round" stroke-linejoin="round"/>
<path d="M5.99851 7.38081C7.05048 7.38081 7.90327 6.52802 7.90327 5.47605C7.90327 4.42408 7.05048 3.57129 5.99851 3.57129C4.94654 3.57129 4.09375 4.42408 4.09375 5.47605C4.09375 6.52802 4.94654 7.38081 5.99851 7.38081Z" stroke="#807A7A" stroke-linecap="round" stroke-linejoin="round"/>
</svg>
