<svg width="15" height="13" viewBox="0 0 15 13" fill="none" xmlns="http://www.w3.org/2000/svg">
<path d="M1 10.5C4.55707 10.4971 8.09867 10.9681 11.5313 11.9007C12.016 12.0327 12.5 11.6727 12.5 11.17V10.5M2 1V1.5C2 1.63261 1.94732 1.75979 1.85355 1.85355C1.75979 1.94732 1.63261 2 1.5 2H1M1 2V1.75C1 1.336 1.336 1 1.75 1H13M1 2V8M13 1V1.5C13 1.776 13.224 2 13.5 2H14M13 1H13.25C13.664 1 14 1.336 14 1.75V8.25C14 8.664 13.664 9 13.25 9H13M1 8V8.25C1 8.44891 1.07902 8.63968 1.21967 8.78033C1.36032 8.92098 1.55109 9 1.75 9H2M1 8H1.5C1.63261 8 1.75979 8.05268 1.85355 8.14645C1.94732 8.24022 2 8.36739 2 8.5V9M13 9V8.5C13 8.36739 13.0527 8.24022 13.1464 8.14645C13.2402 8.05268 13.3674 8 13.5 8H14M13 9H2M9.5 5C9.5 5.53043 9.28929 6.03914 8.91421 6.41421C8.53914 6.78929 8.03043 7 7.5 7C6.96957 7 6.46086 6.78929 6.08579 6.41421C5.71071 6.03914 5.5 5.53043 5.5 5C5.5 4.46957 5.71071 3.96086 6.08579 3.58579C6.46086 3.21071 6.96957 3 7.5 3C8.03043 3 8.53914 3.21071 8.91421 3.58579C9.28929 3.96086 9.5 4.46957 9.5 5ZM11.5 5H11.5053V5.00533H11.5V5ZM3.5 5H3.50533V5.00533H3.5V5Z" stroke="#DB4C45" stroke-width="1.25" stroke-linecap="round" stroke-linejoin="round"/>
</svg>
