<svg width="16" height="16" viewBox="0 0 16 16" fill="none" xmlns="http://www.w3.org/2000/svg">
<path d="M8.00065 4.66683V1.3335M7.16732 11.3335H4.66732M2.58398 14.6668H13.4173C13.7488 14.6668 14.0668 14.5351 14.3012 14.3007C14.5356 14.0663 14.6673 13.7483 14.6673 13.4168V4.8635C14.6672 4.73416 14.6369 4.60663 14.579 4.491L13.4615 2.25516C13.323 1.97811 13.1101 1.74511 12.8467 1.58231C12.5832 1.41951 12.2795 1.33335 11.9698 1.3335H4.03148C3.72191 1.33351 3.41845 1.41974 3.15513 1.58253C2.89181 1.74532 2.67903 1.97823 2.54065 2.25516L1.42232 4.491C1.36436 4.60663 1.33412 4.73416 1.33398 4.8635V13.4168C1.33398 13.7483 1.46568 14.0663 1.7001 14.3007C1.93452 14.5351 2.25246 14.6668 2.58398 14.6668Z" stroke="#807A7A" stroke-width="1.66667" stroke-linecap="round"/>
<path d="M2.16797 4.66699H13.8346" stroke="#807A7A" stroke-width="1.66667" stroke-linecap="round" stroke-linejoin="round"/>
</svg>
