<svg width="17" height="18" viewBox="0 0 17 18" fill="none" xmlns="http://www.w3.org/2000/svg">
<path d="M16.5909 15.9085L13.4992 12.8418C14.6993 11.3455 15.2804 9.44625 15.1232 7.53458C14.966 5.62292 14.0822 3.84415 12.6538 2.56403C11.2253 1.28392 9.36069 0.599756 7.44329 0.652223C5.52589 0.70469 3.70146 1.4898 2.34514 2.84612C0.988823 4.20243 0.203714 6.02686 0.151247 7.94427C0.0987796 9.86167 0.782943 11.7263 2.06306 13.1548C3.34317 14.5832 5.12194 15.4669 7.0336 15.6242C8.94527 15.7814 10.8445 15.2002 12.3409 14.0002L15.4075 17.0668C15.485 17.1449 15.5772 17.2069 15.6787 17.2492C15.7803 17.2915 15.8892 17.3133 15.9992 17.3133C16.1092 17.3133 16.2181 17.2915 16.3197 17.2492C16.4212 17.2069 16.5134 17.1449 16.5909 17.0668C16.7411 16.9114 16.825 16.7038 16.825 16.4877C16.825 16.2716 16.7411 16.0639 16.5909 15.9085ZM7.66585 14.0002C6.51213 14.0002 5.38432 13.658 4.42503 13.0171C3.46574 12.3761 2.71807 11.4651 2.27656 10.3992C1.83505 9.33325 1.71953 8.16036 1.94461 7.0288C2.16969 5.89725 2.72526 4.85785 3.54106 4.04204C4.35687 3.22624 5.39627 2.67066 6.52783 2.44558C7.65938 2.2205 8.83227 2.33602 9.89818 2.77753C10.9641 3.21904 11.8751 3.96672 12.5161 4.926C13.1571 5.88529 13.4992 7.01311 13.4992 8.16683C13.4992 9.71393 12.8846 11.1977 11.7906 12.2916C10.6967 13.3856 9.21295 14.0002 7.66585 14.0002Z" fill="#A0A3BD"/>
</svg>
