<svg width="25" height="24" viewBox="0 0 25 24" fill="none" xmlns="http://www.w3.org/2000/svg">
<path d="M17.2727 15.0002C16.7113 15.003 16.1577 15.1318 15.6528 15.3771C15.1478 15.6225 14.7044 15.9781 14.3552 16.4177L8.87272 12.9902C9.07253 12.3453 9.07253 11.655 8.87272 11.0102L14.3552 7.58265C14.9117 8.27169 15.6941 8.74154 16.5638 8.90896C17.4335 9.07638 18.3344 8.93058 19.1069 8.49737C19.8794 8.06417 20.4736 7.37152 20.7843 6.54214C21.095 5.71276 21.1021 4.80017 20.8044 3.96603C20.5067 3.13189 19.9234 2.43005 19.1577 1.98483C18.3921 1.5396 17.4936 1.37974 16.6214 1.53356C15.7492 1.68737 14.9595 2.14493 14.3924 2.82519C13.8252 3.50545 13.5171 4.3645 13.5227 5.25015C13.5263 5.58554 13.5768 5.91877 13.6727 6.24015L8.19022 9.66765C7.7062 9.05834 7.04462 8.61469 6.29718 8.3982C5.54974 8.18171 4.75347 8.2031 4.01873 8.45941C3.28399 8.71572 2.64719 9.19426 2.19659 9.82868C1.74598 10.4631 1.50391 11.222 1.50391 12.0002C1.50391 12.7783 1.74598 13.5372 2.19659 14.1716C2.64719 14.8061 3.28399 15.2846 4.01873 15.5409C4.75347 15.7972 5.54974 15.8186 6.29718 15.6021C7.04462 15.3856 7.7062 14.942 8.19022 14.3327L13.6727 17.7602C13.5768 18.0815 13.5263 18.4148 13.5227 18.7502C13.5227 19.4918 13.7427 20.2169 14.1547 20.8335C14.5668 21.4502 15.1524 21.9309 15.8377 22.2147C16.5229 22.4985 17.2769 22.5728 18.0043 22.4281C18.7317 22.2834 19.3999 21.9263 19.9244 21.4018C20.4488 20.8774 20.806 20.2092 20.9507 19.4817C21.0954 18.7543 21.0211 18.0003 20.7373 17.3151C20.4534 16.6299 19.9728 16.0442 19.3561 15.6321C18.7394 15.2201 18.0144 15.0002 17.2727 15.0002ZM17.2727 3.00015C17.7177 3.00015 18.1527 3.13211 18.5228 3.37935C18.8928 3.62658 19.1812 3.97798 19.3514 4.38912C19.5217 4.80025 19.5663 5.25265 19.4795 5.68911C19.3927 6.12556 19.1784 6.52648 18.8637 6.84114C18.549 7.15581 18.1481 7.3701 17.7117 7.45692C17.2752 7.54374 16.8228 7.49918 16.4117 7.32888C16.0005 7.15859 15.6491 6.8702 15.4019 6.50019C15.1547 6.13018 15.0227 5.69516 15.0227 5.25015C15.0227 4.65342 15.2598 4.08112 15.6817 3.65916C16.1037 3.23721 16.676 3.00015 17.2727 3.00015ZM5.27272 14.2502C4.82771 14.2502 4.3927 14.1182 4.02269 13.871C3.65268 13.6237 3.36429 13.2723 3.19399 12.8612C3.02369 12.4501 2.97914 11.9977 3.06595 11.5612C3.15277 11.1247 3.36706 10.7238 3.68173 10.4092C3.9964 10.0945 4.39731 9.8802 4.83377 9.79339C5.27022 9.70657 5.72262 9.75113 6.13376 9.92142C6.54489 10.0917 6.89629 10.3801 7.14353 10.7501C7.39076 11.1201 7.52272 11.5551 7.52272 12.0002C7.52272 12.5969 7.28567 13.1692 6.86371 13.5911C6.44175 14.0131 5.86946 14.2502 5.27272 14.2502ZM17.2727 21.0002C16.8277 21.0002 16.3927 20.8682 16.0227 20.621C15.6527 20.3737 15.3643 20.0223 15.194 19.6112C15.0237 19.2001 14.9791 18.7477 15.066 18.3112C15.1528 17.8747 15.3671 17.4738 15.6817 17.1592C15.9964 16.8445 16.3973 16.6302 16.8338 16.5434C17.2702 16.4566 17.7226 16.5011 18.1338 16.6714C18.5449 16.8417 18.8963 17.1301 19.1435 17.5001C19.3908 17.8701 19.5227 18.3051 19.5227 18.7502C19.5227 19.3469 19.2857 19.9192 18.8637 20.3411C18.4418 20.7631 17.8695 21.0002 17.2727 21.0002Z" fill="#333333"/>
</svg>
