<svg width="14" height="16" viewBox="0 0 14 16" fill="none" xmlns="http://www.w3.org/2000/svg">
<path d="M11.5 15.5C10.875 15.5 10.3438 15.2812 9.90625 14.8438C9.46875 14.4062 9.25 13.875 9.25 13.25C9.25 13.1625 9.25625 13.0717 9.26875 12.9777C9.28125 12.8837 9.3 12.7995 9.325 12.725L4.0375 9.65C3.825 9.8375 3.5875 9.9845 3.325 10.091C3.0625 10.1975 2.7875 10.2505 2.5 10.25C1.875 10.25 1.34375 10.0312 0.90625 9.59375C0.46875 9.15625 0.25 8.625 0.25 8C0.25 7.375 0.46875 6.84375 0.90625 6.40625C1.34375 5.96875 1.875 5.75 2.5 5.75C2.7875 5.75 3.0625 5.80325 3.325 5.90975C3.5875 6.01625 3.825 6.163 4.0375 6.35L9.325 3.275C9.3 3.2 9.28125 3.11575 9.26875 3.02225C9.25625 2.92875 9.25 2.838 9.25 2.75C9.25 2.125 9.46875 1.59375 9.90625 1.15625C10.3438 0.71875 10.875 0.5 11.5 0.5C12.125 0.5 12.6562 0.71875 13.0938 1.15625C13.5312 1.59375 13.75 2.125 13.75 2.75C13.75 3.375 13.5312 3.90625 13.0938 4.34375C12.6562 4.78125 12.125 5 11.5 5C11.2125 5 10.9375 4.947 10.675 4.841C10.4125 4.735 10.175 4.588 9.9625 4.4L4.675 7.475C4.7 7.55 4.71875 7.6345 4.73125 7.7285C4.74375 7.8225 4.75 7.913 4.75 8C4.75 8.0875 4.74375 8.17825 4.73125 8.27225C4.71875 8.36625 4.7 8.4505 4.675 8.525L9.9625 11.6C10.175 11.4125 10.4125 11.2657 10.675 11.1597C10.9375 11.0537 11.2125 11.0005 11.5 11C12.125 11 12.6562 11.2188 13.0938 11.6562C13.5312 12.0938 13.75 12.625 13.75 13.25C13.75 13.875 13.5312 14.4062 13.0938 14.8438C12.6562 15.2812 12.125 15.5 11.5 15.5Z" fill="#DB4C45"/>
</svg>
