<svg width="21" height="16" viewBox="0 0 21 16" fill="none" xmlns="http://www.w3.org/2000/svg">
<path d="M19.834 11H19.334V7.62187C19.334 7.225 19.1746 6.84375 18.8934 6.5625L15.7715 3.44062C15.4902 3.15937 15.109 3 14.7121 3H13.334V1.5C13.334 0.671875 12.6621 0 11.834 0H3.83398C3.00586 0 2.33398 0.671875 2.33398 1.5V3H0.583984C0.446484 3 0.333984 3.1125 0.333984 3.25V3.75C0.333984 3.8875 0.446484 4 0.583984 4H9.08398C9.22148 4 9.33398 4.1125 9.33398 4.25V4.75C9.33398 4.8875 9.22148 5 9.08398 5H1.58398C1.44648 5 1.33398 5.1125 1.33398 5.25V5.75C1.33398 5.8875 1.44648 6 1.58398 6H8.08398C8.22148 6 8.33398 6.1125 8.33398 6.25V6.75C8.33398 6.8875 8.22148 7 8.08398 7H0.583984C0.446484 7 0.333984 7.1125 0.333984 7.25V7.75C0.333984 7.8875 0.446484 8 0.583984 8H7.08398C7.22148 8 7.33398 8.1125 7.33398 8.25V8.75C7.33398 8.8875 7.22148 9 7.08398 9H2.33398V13C2.33398 14.6562 3.67773 16 5.33398 16C6.99023 16 8.33398 14.6562 8.33398 13H12.334C12.334 14.6562 13.6777 16 15.334 16C16.9902 16 18.334 14.6562 18.334 13H19.834C20.109 13 20.334 12.775 20.334 12.5V11.5C20.334 11.225 20.109 11 19.834 11ZM5.33398 14.5C4.50586 14.5 3.83398 13.8281 3.83398 13C3.83398 12.1719 4.50586 11.5 5.33398 11.5C6.16211 11.5 6.83398 12.1719 6.83398 13C6.83398 13.8281 6.16211 14.5 5.33398 14.5ZM15.334 14.5C14.5059 14.5 13.834 13.8281 13.834 13C13.834 12.1719 14.5059 11.5 15.334 11.5C16.1621 11.5 16.834 12.1719 16.834 13C16.834 13.8281 16.1621 14.5 15.334 14.5ZM17.834 8H13.334V4.5H14.7121L17.834 7.62187V8Z" fill="#A0A3BD"/>
</svg>
