<svg width="21" height="20" viewBox="0 0 21 20" fill="none" xmlns="http://www.w3.org/2000/svg">
<path fill-rule="evenodd" clip-rule="evenodd" d="M10.5007 1.04169H10.5957C12.5199 1.04169 14.0274 1.04169 15.2041 1.20002C16.4074 1.36169 17.3574 1.70002 18.1032 2.44502C18.8491 3.19085 19.1866 4.14085 19.3482 5.34502C19.5066 6.52085 19.5066 8.02835 19.5066 9.95252V10.0475L19.5057 11.1142C19.5076 11.1417 19.5076 11.1692 19.5057 11.1967C19.4999 12.585 19.4741 13.7242 19.3482 14.655C19.1866 15.8592 18.8482 16.8092 18.1032 17.555C17.3574 18.3009 16.4074 18.6384 15.2032 18.8C14.5891 18.8834 13.8832 18.9225 13.0757 18.9417C12.9883 18.9625 12.8973 18.9643 12.8091 18.9467C12.1407 18.9584 11.4049 18.9584 10.5966 18.9584H10.5007C8.57658 18.9584 7.06908 18.9584 5.89241 18.8C4.68908 18.6384 3.73908 18.3 2.99324 17.555C2.24741 16.8092 1.90991 15.8592 1.74824 14.655C1.58991 13.4792 1.58991 11.9717 1.58991 10.0475V9.95252C1.58991 9.44669 1.58991 8.97085 1.59324 8.52169C1.58871 8.47847 1.58871 8.4349 1.59324 8.39169C1.60324 7.18752 1.63491 6.18252 1.74824 5.34502C1.90991 4.14085 2.24824 3.19085 2.99324 2.44502C3.73908 1.69919 4.68908 1.36169 5.89324 1.20002C7.06908 1.04169 8.57658 1.04169 10.5007 1.04169ZM2.83991 9.00335V10C2.83991 11.9817 2.83991 13.405 2.98574 14.4884C3.12908 15.5542 3.40241 16.1967 3.87658 16.6717C4.35158 17.1459 4.99324 17.4184 6.05908 17.5617C7.14241 17.7067 8.56574 17.7084 10.5474 17.7084C11.2174 17.7084 11.8241 17.7084 12.3749 17.7025C12.8274 12.5417 8.34074 8.21335 3.11991 8.96252L2.83991 9.00335ZM13.6316 17.6734C14.1014 17.6577 14.5702 17.6204 15.0366 17.5617C16.1016 17.4184 16.7441 17.145 17.2182 16.6709C17.6932 16.1959 17.9657 15.5542 18.1091 14.4884C18.2091 13.7434 18.2407 12.8367 18.2507 11.6975L17.9841 11.6609C15.9674 11.3817 14.1341 12.3292 13.1174 13.8634C13.5399 15.045 13.7299 16.3342 13.6316 17.6734ZM12.5366 12.5617C10.7524 9.26419 7.04324 7.13669 2.94241 7.72585L2.85074 7.73835C2.86741 6.85835 2.90324 6.13002 2.98574 5.51169C3.12908 4.44585 3.40241 3.80335 3.87658 3.32835C4.35158 2.85419 4.99324 2.58169 6.05908 2.43835C7.14241 2.29335 8.56574 2.29169 10.5474 2.29169C12.5291 2.29169 13.9532 2.29335 15.0366 2.43835C16.1016 2.58169 16.7441 2.85502 17.2182 3.32919C17.6932 3.80419 17.9657 4.44585 18.1091 5.51169C18.2541 6.59502 18.2557 8.01835 18.2557 10V10.4367L18.1557 10.4225C15.9141 10.1117 13.8557 11.0167 12.5374 12.5617H12.5366ZM13.8816 5.62502C13.6053 5.62502 13.3404 5.73477 13.145 5.93012C12.9497 6.12547 12.8399 6.39042 12.8399 6.66669C12.8399 6.94295 12.9497 7.20791 13.145 7.40326C13.3404 7.59861 13.6053 7.70835 13.8816 7.70835C14.1578 7.70835 14.4228 7.59861 14.6181 7.40326C14.8135 7.20791 14.9232 6.94295 14.9232 6.66669C14.9232 6.39042 14.8135 6.12547 14.6181 5.93012C14.4228 5.73477 14.1578 5.62502 13.8816 5.62502ZM11.5899 6.66669C11.5899 6.0589 11.8314 5.47601 12.2611 5.04623C12.6909 4.61646 13.2738 4.37502 13.8816 4.37502C14.4894 4.37502 15.0723 4.61646 15.502 5.04623C15.9318 5.47601 16.1732 6.0589 16.1732 6.66669C16.1732 7.27448 15.9318 7.85737 15.502 8.28714C15.0723 8.71691 14.4894 8.95835 13.8816 8.95835C13.2738 8.95835 12.6909 8.71691 12.2611 8.28714C11.8314 7.85737 11.5899 7.27448 11.5899 6.66669Z" fill="#888BA7"/>
</svg>
