<svg width="13" height="13" viewBox="0 0 13 13" fill="none" xmlns="http://www.w3.org/2000/svg">
<path d="M6.46978 0.677246C5.21907 0.677246 4.23919 0.677246 3.47436 0.780163C2.69219 0.885246 2.07469 1.10516 1.5899 1.58941C1.10511 2.0742 0.885734 2.6917 0.780651 3.47441C0.677734 4.2387 0.677734 5.21858 0.677734 6.46929V6.53104C0.677734 7.78175 0.677734 8.76162 0.780651 9.52645C0.885734 10.3086 1.10565 10.9261 1.5899 11.4109C2.07469 11.8957 2.69219 12.1151 3.4749 12.2202C4.23919 12.3231 5.21907 12.3231 6.46978 12.3231H6.53153C7.78223 12.3231 8.76211 12.3231 9.52694 12.2202C10.3091 12.1151 10.9266 11.8952 11.4114 11.4109C11.8962 10.9261 12.1156 10.3086 12.2207 9.52591C12.3236 8.76162 12.3236 7.78175 12.3236 6.53104V5.68766C12.3236 5.57992 12.2808 5.47659 12.2046 5.4004C12.1284 5.32421 12.0251 5.28141 11.9173 5.28141C11.8096 5.28141 11.7062 5.32421 11.6301 5.4004C11.5539 5.47659 11.5111 5.57992 11.5111 5.68766V6.50016C11.5111 7.78825 11.51 8.71341 11.4157 9.41758C11.3226 10.1104 11.1449 10.528 10.8367 10.8367C10.5279 11.145 10.1109 11.3221 9.41807 11.4152C8.7139 11.5095 7.78873 11.5106 6.50065 11.5106C5.21257 11.5106 4.2874 11.5095 3.58323 11.4152C2.89044 11.3221 2.47282 11.1444 2.16407 10.8362C1.85586 10.5275 1.67873 10.1104 1.58557 9.41758C1.49132 8.71341 1.49023 7.78825 1.49023 6.50016C1.49023 5.21208 1.49132 4.28691 1.58557 3.58275C1.67873 2.88995 1.8564 2.47233 2.16461 2.16358C2.47336 1.85537 2.89044 1.67825 3.58323 1.58508C4.2874 1.49083 5.21257 1.48975 6.50065 1.48975H7.31315C7.4209 1.48975 7.52423 1.44694 7.60041 1.37076C7.6766 1.29457 7.7194 1.19124 7.7194 1.0835C7.7194 0.975752 7.6766 0.872421 7.60041 0.796234C7.52423 0.720047 7.4209 0.677246 7.31315 0.677246H6.46978Z" fill="#8F8383"/>
<path fill-rule="evenodd" clip-rule="evenodd" d="M10.291 0.677246C9.75229 0.677246 9.23564 0.891252 8.8547 1.27219C8.47377 1.65312 8.25977 2.16978 8.25977 2.7085C8.25977 3.24722 8.47377 3.76387 8.8547 4.14481C9.23564 4.52574 9.75229 4.73975 10.291 4.73975C10.8297 4.73975 11.3464 4.52574 11.7273 4.14481C12.1083 3.76387 12.3223 3.24722 12.3223 2.7085C12.3223 2.16978 12.1083 1.65312 11.7273 1.27219C11.3464 0.891252 10.8297 0.677246 10.291 0.677246ZM9.07227 2.7085C9.07227 2.38526 9.20067 2.07527 9.42923 1.84671C9.65779 1.61815 9.96778 1.48975 10.291 1.48975C10.6142 1.48975 10.9242 1.61815 11.1528 1.84671C11.3814 2.07527 11.5098 2.38526 11.5098 2.7085C11.5098 3.03173 11.3814 3.34172 11.1528 3.57028C10.9242 3.79884 10.6142 3.92725 10.291 3.92725C9.96778 3.92725 9.65779 3.79884 9.42923 3.57028C9.20067 3.34172 9.07227 3.03173 9.07227 2.7085Z" fill="#8F8383"/>
</svg>
