<svg width="105" height="93" viewBox="0 0 105 93" fill="none" xmlns="http://www.w3.org/2000/svg">
<path d="M40.1448 83.0173C37.0165 80.2603 34.9571 76.4169 29.2426 71.8429C25.6041 68.9305 4.69329 68.7851 1.02946 45.2572C0.644891 42.7857 0.610731 40.194 0.892819 37.8205C5.44038 -0.417801 52.841 -11.5614 86.7918 13.1753C95.2985 19.3735 113.438 41.6088 98.7232 70.5559C88.568 90.5323 61.1383 101.515 40.1448 83.0173Z" fill="#E1F4FE"/>
<path d="M58 16.5625C52.3756 16.5625 46.8775 18.2303 42.201 21.3551C37.5245 24.4798 33.8796 28.9212 31.7272 34.1174C29.5748 39.3137 29.0117 45.0315 30.1089 50.5479C31.2062 56.0642 33.9146 61.1313 37.8917 65.1083C41.8687 69.0854 46.9358 71.7938 52.4521 72.8911C57.9685 73.9883 63.6863 73.4252 68.8826 71.2728C74.0788 69.1205 78.5202 65.4755 81.6449 60.799C84.7697 56.1225 86.4375 50.6244 86.4375 45C86.4296 37.4604 83.4309 30.2318 78.0996 24.9004C72.7682 19.5691 65.5397 16.5705 58 16.5625ZM70.4852 39.9852L55.1727 55.2977C54.9695 55.501 54.7283 55.6624 54.4627 55.7725C54.1971 55.8826 53.9125 55.9392 53.625 55.9392C53.3375 55.9392 53.0529 55.8826 52.7873 55.7725C52.5218 55.6624 52.2805 55.501 52.0774 55.2977L45.5149 48.7352C45.1044 48.3247 44.8738 47.768 44.8738 47.1875C44.8738 46.607 45.1044 46.0503 45.5149 45.6398C45.9253 45.2294 46.482 44.9988 47.0625 44.9988C47.643 44.9988 48.1997 45.2294 48.6102 45.6398L53.625 50.6574L67.3899 36.8898C67.5931 36.6866 67.8344 36.5254 68.0999 36.4154C68.3655 36.3054 68.6501 36.2488 68.9375 36.2488C69.2249 36.2488 69.5096 36.3054 69.7751 36.4154C70.0406 36.5254 70.2819 36.6866 70.4852 36.8898C70.6884 37.0931 70.8496 37.3344 70.9596 37.5999C71.0696 37.8655 71.1262 38.1501 71.1262 38.4375C71.1262 38.7249 71.0696 39.0095 70.9596 39.2751C70.8496 39.5406 70.6884 39.7819 70.4852 39.9852Z" fill="#3D7FFE"/>
</svg>
