<svg width="13" height="14" viewBox="0 0 13 14" fill="none" xmlns="http://www.w3.org/2000/svg">
<path d="M4.83594 1H8.16927C8.43449 1 8.68884 1.10536 8.87638 1.29289C9.06391 1.48043 9.16927 1.73478 9.16927 2C9.16927 2.61884 8.92344 3.21233 8.48585 3.64992C8.04827 4.0875 7.45478 4.33333 6.83594 4.33333H6.16927C5.55043 4.33333 4.95694 4.0875 4.51936 3.64992C4.08177 3.21233 3.83594 2.61884 3.83594 2C3.83594 1.73478 3.94129 1.48043 4.12883 1.29289C4.31637 1.10536 4.57072 1 4.83594 1Z" stroke="#DB4C45" stroke-width="1.66667" stroke-linecap="round" stroke-linejoin="round"/>
<path d="M1.16797 10.3335V9.66683C1.16797 8.25234 1.72987 6.89579 2.73007 5.89559C3.73026 4.8954 5.08681 4.3335 6.5013 4.3335C7.91579 4.3335 9.27234 4.8954 10.2725 5.89559C11.2727 6.89579 11.8346 8.25234 11.8346 9.66683V10.3335C11.8346 11.0407 11.5537 11.719 11.0536 12.2191C10.5535 12.7192 9.87521 13.0002 9.16797 13.0002H3.83464C3.12739 13.0002 2.44911 12.7192 1.94902 12.2191C1.44892 11.719 1.16797 11.0407 1.16797 10.3335Z" stroke="#DB4C45" stroke-width="1.66667" stroke-linecap="round" stroke-linejoin="round"/>
</svg>
