<svg width="11" height="11" viewBox="0 0 11 11" fill="none" xmlns="http://www.w3.org/2000/svg">
<path d="M5.99844 0.515015V1.52501C8.19344 1.79501 9.74844 3.79001 9.47844 5.98501C9.24844 7.80502 7.81844 9.25001 5.99844 9.46501V10.465C8.74844 10.19 10.7484 7.75001 10.4734 5.00001C10.2484 2.62501 8.36344 0.750015 5.99844 0.515015ZM4.99844 0.530015C4.02344 0.625015 3.09344 1.00001 2.33344 1.63001L3.04844 2.37001C3.60844 1.92001 4.28344 1.63001 4.99844 1.53001V0.530015ZM1.62844 2.33501C1.00327 3.09369 0.618538 4.02156 0.523438 5.00001H1.52344C1.61844 4.29001 1.89844 3.61501 2.34344 3.05001L1.62844 2.33501ZM0.528437 6.00001C0.628437 6.98001 1.01344 7.90501 1.63344 8.66501L2.34344 7.95001C1.9019 7.38481 1.62041 6.71131 1.52844 6.00001H0.528437ZM3.04844 8.68501L2.33344 9.37001C3.09083 10.0014 4.01807 10.3945 4.99844 10.5V9.50001C4.28714 9.40804 3.61364 9.12655 3.04844 8.68501ZM5.74844 3.00001V5.62501L7.99844 6.96001L7.62344 7.57501L4.99844 6.00001V3.00001H5.74844Z" fill="#D6761E"/>
</svg>
