<svg width="80" height="80" viewBox="0 0 80 80" fill="none" xmlns="http://www.w3.org/2000/svg">
<path d="M28.7493 28.3332H13.7493C12.8653 28.3332 12.0174 27.982 11.3923 27.3569C10.7672 26.7317 10.416 25.8839 10.416 24.9998V9.99984C10.416 9.11578 10.7672 8.26794 11.3923 7.64281C12.0174 7.01769 12.8653 6.6665 13.7493 6.6665C14.6334 6.6665 15.4812 7.01769 16.1064 7.64281C16.7315 8.26794 17.0827 9.11578 17.0827 9.99984V21.6665H28.7493C29.6334 21.6665 30.4812 22.0177 31.1064 22.6428C31.7315 23.2679 32.0827 24.1158 32.0827 24.9998C32.0827 25.8839 31.7315 26.7317 31.1064 27.3569C30.4812 27.982 29.6334 28.3332 28.7493 28.3332Z" fill="#A0A3BD"/>
<path d="M70 43.3335C69.116 43.3335 68.2681 42.9823 67.643 42.3572C67.0179 41.7321 66.6667 40.8842 66.6667 40.0002C66.6692 34.132 64.7348 28.427 61.1637 23.7705C57.5925 19.1141 52.5843 15.7665 46.9161 14.2473C41.248 12.728 35.2369 13.1221 29.8156 15.3683C24.3943 17.6146 19.866 21.5873 16.9333 26.6702C16.4904 27.4353 15.7617 27.9932 14.9075 28.221C14.0532 28.4489 13.1435 28.3281 12.3783 27.8852C11.6132 27.4423 11.0553 26.7135 10.8275 25.8593C10.5996 25.0051 10.7204 24.0953 11.1633 23.3302C14.8308 16.9776 20.4923 12.013 27.2694 9.20647C34.0465 6.39994 41.5603 5.90841 48.6453 7.80814C55.7302 9.70787 61.9902 13.8926 66.454 19.7133C70.9179 25.5339 73.336 32.665 73.3333 40.0002C73.3333 40.8842 72.9822 41.7321 72.357 42.3572C71.7319 42.9823 70.8841 43.3335 70 43.3335ZM66.25 73.3335C65.366 73.3335 64.5181 72.9823 63.893 72.3572C63.2679 71.7321 62.9167 70.8842 62.9167 70.0002V58.3335H51.25C50.3659 58.3335 49.5181 57.9823 48.893 57.3572C48.2679 56.7321 47.9167 55.8842 47.9167 55.0002C47.9167 54.1161 48.2679 53.2683 48.893 52.6432C49.5181 52.018 50.3659 51.6668 51.25 51.6668H66.25C67.1341 51.6668 67.9819 52.018 68.607 52.6432C69.2322 53.2683 69.5833 54.1161 69.5833 55.0002V70.0002C69.5833 70.8842 69.2322 71.7321 68.607 72.3572C67.9819 72.9823 67.1341 73.3335 66.25 73.3335Z" fill="#A0A3BD"/>
<path d="M39.9993 73.3332C31.162 73.3226 22.6897 69.8073 16.4408 63.5584C10.1919 57.3095 6.6766 48.8371 6.66602 39.9998C6.66602 39.1158 7.0172 38.2679 7.64233 37.6428C8.26745 37.0177 9.11529 36.6665 9.99935 36.6665C10.8834 36.6665 11.7313 37.0177 12.3564 37.6428C12.9815 38.2679 13.3327 39.1158 13.3327 39.9998C13.3301 45.868 15.2645 51.573 18.8357 56.2295C22.4069 60.8859 27.4151 64.2335 33.0832 65.7528C38.7514 67.272 44.7625 66.8779 50.1837 64.6317C55.605 62.3855 60.1333 58.4127 63.066 53.3298C63.2853 52.951 63.5771 52.619 63.9247 52.3529C64.2723 52.0868 64.6689 51.8918 65.0919 51.779C65.5149 51.6661 65.9559 51.6377 66.3899 51.6954C66.8238 51.753 67.2422 51.8955 67.621 52.1148C67.9999 52.3341 68.3318 52.6259 68.5979 52.9735C68.864 53.3211 69.0591 53.7177 69.1719 54.1407C69.2847 54.5637 69.3131 55.0047 69.2555 55.4387C69.1979 55.8726 69.0553 56.291 68.836 56.6698C65.9044 61.7248 61.6993 65.9232 56.6397 68.8469C51.5802 71.7706 45.8429 73.3174 39.9993 73.3332Z" fill="#A0A3BD"/>
</svg>
