<svg width="21" height="20" viewBox="0 0 21 20" fill="none" xmlns="http://www.w3.org/2000/svg">
<path d="M1.33203 16.6667V15.8333C1.33203 14.2862 1.94661 12.8025 3.04058 11.7085C4.13454 10.6146 5.61827 10 7.16536 10C8.71246 10 10.1962 10.6146 11.2902 11.7085C12.3841 12.8025 12.9987 14.2862 12.9987 15.8333V16.6667" stroke="#DB4C45" stroke-width="1.7" stroke-linecap="round"/>
<path d="M11.332 11.6667C11.332 10.5616 11.771 9.50179 12.5524 8.72039C13.3338 7.93899 14.3936 7.5 15.4987 7.5C16.0459 7.5 16.5877 7.60777 17.0932 7.81717C17.5987 8.02656 18.0581 8.33348 18.445 8.72039C18.8319 9.1073 19.1388 9.56663 19.3482 10.0722C19.5576 10.5777 19.6654 11.1195 19.6654 11.6667V12.0833" stroke="#DB4C45" stroke-width="1.7" stroke-linecap="round"/>
<path d="M7.16536 10C8.04942 10 8.89727 9.64881 9.52239 9.02369C10.1475 8.39857 10.4987 7.55072 10.4987 6.66667C10.4987 5.78261 10.1475 4.93477 9.52239 4.30964C8.89727 3.68452 8.04942 3.33333 7.16536 3.33333C6.28131 3.33333 5.43346 3.68452 4.80834 4.30964C4.18322 4.93477 3.83203 5.78261 3.83203 6.66667C3.83203 7.55072 4.18322 8.39857 4.80834 9.02369C5.43346 9.64881 6.28131 10 7.16536 10ZM15.4987 7.5C16.1617 7.5 16.7976 7.23661 17.2665 6.76777C17.7353 6.29893 17.9987 5.66304 17.9987 5C17.9987 4.33696 17.7353 3.70107 17.2665 3.23223C16.7976 2.76339 16.1617 2.5 15.4987 2.5C14.8357 2.5 14.1998 2.76339 13.7309 3.23223C13.2621 3.70107 12.9987 4.33696 12.9987 5C12.9987 5.66304 13.2621 6.29893 13.7309 6.76777C14.1998 7.23661 14.8357 7.5 15.4987 7.5Z" stroke="#DB4C45" stroke-width="1.7" stroke-linecap="round" stroke-linejoin="round"/>
</svg>
