<svg width="18" height="14" viewBox="0 0 18 14" fill="none" xmlns="http://www.w3.org/2000/svg">
<path d="M11.3346 3.66671L12.3346 4.66671L6.66797 10.3334L5.66797 9.33337L11.3346 3.66671ZM2.33464 0.333374H15.668C16.593 0.333374 17.3346 1.07504 17.3346 2.00004V5.33337C16.8926 5.33337 16.4687 5.50897 16.1561 5.82153C15.8436 6.13409 15.668 6.55801 15.668 7.00004C15.668 7.44207 15.8436 7.86599 16.1561 8.17855C16.4687 8.49111 16.8926 8.66671 17.3346 8.66671V12C17.3346 12.925 16.593 13.6667 15.668 13.6667H2.33464C1.89261 13.6667 1.46868 13.4911 1.15612 13.1786C0.843563 12.866 0.667969 12.4421 0.667969 12V8.66671C1.59297 8.66671 2.33464 7.92504 2.33464 7.00004C2.33464 6.55801 2.15904 6.13409 1.84648 5.82153C1.53392 5.50897 1.11 5.33337 0.667969 5.33337V2.00004C0.667969 1.55801 0.843563 1.13409 1.15612 0.821529C1.46868 0.508969 1.89261 0.333374 2.33464 0.333374ZM2.33464 2.00004V4.11671C2.84103 4.40871 3.2616 4.82893 3.55401 5.33508C3.84643 5.84124 4.00038 6.41549 4.00038 7.00004C4.00038 7.58459 3.84643 8.15884 3.55401 8.665C3.2616 9.17116 2.84103 9.59137 2.33464 9.88337V12H15.668V9.88337C15.1616 9.59137 14.741 9.17116 14.4486 8.665C14.1562 8.15884 14.0022 7.58459 14.0022 7.00004C14.0022 6.41549 14.1562 5.84124 14.4486 5.33508C14.741 4.82893 15.1616 4.40871 15.668 4.11671V2.00004H2.33464ZM6.91797 3.66671C7.60964 3.66671 8.16797 4.22504 8.16797 4.91671C8.16797 5.60837 7.60964 6.16671 6.91797 6.16671C6.2263 6.16671 5.66797 5.60837 5.66797 4.91671C5.66797 4.22504 6.2263 3.66671 6.91797 3.66671ZM11.0846 7.83337C11.7763 7.83337 12.3346 8.39171 12.3346 9.08337C12.3346 9.77504 11.7763 10.3334 11.0846 10.3334C10.393 10.3334 9.83463 9.77504 9.83463 9.08337C9.83463 8.39171 10.393 7.83337 11.0846 7.83337Z" fill="#DB4C45"/>
</svg>
