<svg width="18" height="14" viewBox="0 0 18 14" fill="none" xmlns="http://www.w3.org/2000/svg">
<path d="M2.35612 0.333252C1.91409 0.333252 1.49017 0.508847 1.17761 0.821407C0.865048 1.13397 0.689453 1.55789 0.689453 1.99992V5.33325C1.13148 5.33325 1.5554 5.50885 1.86796 5.82141C2.18053 6.13397 2.35612 6.55789 2.35612 6.99992C2.35612 7.44195 2.18053 7.86587 1.86796 8.17843C1.5554 8.49099 1.13148 8.66658 0.689453 8.66658V11.9999C0.689453 12.4419 0.865048 12.8659 1.17761 13.1784C1.49017 13.491 1.91409 13.6666 2.35612 13.6666H15.6895C16.1315 13.6666 16.5554 13.491 16.868 13.1784C17.1805 12.8659 17.3561 12.4419 17.3561 11.9999V8.66658C16.9141 8.66658 16.4902 8.49099 16.1776 8.17843C15.865 7.86587 15.6895 7.44195 15.6895 6.99992C15.6895 6.55789 15.865 6.13397 16.1776 5.82141C16.4902 5.50885 16.9141 5.33325 17.3561 5.33325V1.99992C17.3561 1.55789 17.1805 1.13397 16.868 0.821407C16.5554 0.508847 16.1315 0.333252 15.6895 0.333252H2.35612ZM11.9395 2.83325L13.1895 4.08325L6.10612 11.1666L4.85612 9.91658L11.9395 2.83325ZM6.36445 2.86659C7.18112 2.86659 7.83945 3.52492 7.83945 4.34159C7.83945 4.73278 7.68405 5.10795 7.40744 5.38457C7.13082 5.66118 6.75565 5.81659 6.36445 5.81659C5.54779 5.81659 4.88945 5.15825 4.88945 4.34159C4.88945 3.95039 5.04485 3.57522 5.32147 3.2986C5.59809 3.02199 5.97326 2.86659 6.36445 2.86659ZM11.6811 8.18325C12.4978 8.18325 13.1561 8.84159 13.1561 9.65825C13.1561 10.0494 13.0007 10.4246 12.7241 10.7012C12.4475 10.9779 12.0723 11.1333 11.6811 11.1333C10.8645 11.1333 10.2061 10.4749 10.2061 9.65825C10.2061 9.26706 10.3615 8.89189 10.6381 8.61527C10.9148 8.33865 11.2899 8.18325 11.6811 8.18325Z" fill="#DB4C45"/>
</svg>
