<svg width="18" height="16" viewBox="0 0 18 16" fill="none" xmlns="http://www.w3.org/2000/svg">
<path fill-rule="evenodd" clip-rule="evenodd" d="M16.5825 4.67008C16.5367 4.66675 16.4859 4.66675 16.4325 4.66675H14.3284C12.605 4.66675 11.1309 6.02341 11.1309 7.79175C11.1309 9.56008 12.6059 10.9167 14.3284 10.9167H16.4325C16.4859 10.9167 16.5367 10.9167 16.5842 10.9134C16.9384 10.8921 17.2727 10.7427 17.5249 10.4931C17.7771 10.2435 17.93 9.9107 17.955 9.55675C17.9584 9.50675 17.9584 9.45258 17.9584 9.40258V6.18091C17.9584 6.13092 17.9584 6.07675 17.955 6.02675C17.93 5.6728 17.7771 5.34003 17.5249 5.09043C17.2727 4.84083 16.9384 4.69144 16.5842 4.67008M14.1442 8.62508C14.5875 8.62508 14.9467 8.25175 14.9467 7.79175C14.9467 7.33175 14.5875 6.95841 14.1442 6.95841C13.7 6.95841 13.3409 7.33175 13.3409 7.79175C13.3409 8.25175 13.7 8.62508 14.1442 8.62508Z" fill="#DB4C45"/>
<path fill-rule="evenodd" clip-rule="evenodd" d="M16.431 12.1667C16.4598 12.1655 16.4885 12.1712 16.5147 12.1832C16.5409 12.1952 16.5639 12.2132 16.5819 12.2358C16.5998 12.2583 16.6122 12.2848 16.618 12.3131C16.6238 12.3413 16.6228 12.3705 16.6152 12.3983C16.4485 12.9917 16.1827 13.4983 15.7568 13.9233C15.1327 14.5483 14.3418 14.8242 13.3652 14.9558C12.4152 15.0833 11.2027 15.0833 9.67101 15.0833H7.91102C6.37935 15.0833 5.16602 15.0833 4.21685 14.9558C3.24018 14.8242 2.44935 14.5475 1.82518 13.9242C1.20185 13.3 0.925182 12.5092 0.793516 11.5325C0.666016 10.5825 0.666016 9.37 0.666016 7.83833V7.745C0.666016 6.21333 0.666016 5 0.793516 4.05C0.925182 3.07333 1.20185 2.2825 1.82518 1.65833C2.44935 1.035 3.24018 0.758333 4.21685 0.626667C5.16685 0.5 6.37935 0.5 7.91102 0.5H9.67101C11.2027 0.5 12.416 0.5 13.3652 0.6275C14.3418 0.759167 15.1327 1.03583 15.7568 1.65917C16.1827 2.08583 16.4485 2.59167 16.6152 3.185C16.6228 3.21281 16.6238 3.24202 16.618 3.27027C16.6122 3.29851 16.5998 3.325 16.5819 3.34757C16.5639 3.37014 16.5409 3.38816 16.5147 3.40016C16.4885 3.41217 16.4598 3.41782 16.431 3.41667H14.3277C11.9635 3.41667 9.88018 5.28333 9.88018 7.79167C9.88018 10.3 11.9635 12.1667 14.3277 12.1667H16.431ZM3.79102 3.83333C3.62526 3.83333 3.46628 3.89918 3.34907 4.01639C3.23186 4.1336 3.16602 4.29257 3.16602 4.45833C3.16602 4.62409 3.23186 4.78306 3.34907 4.90027C3.46628 5.01748 3.62526 5.08333 3.79102 5.08333H7.12435C7.29011 5.08333 7.44908 5.01748 7.56629 4.90027C7.6835 4.78306 7.74935 4.62409 7.74935 4.45833C7.74935 4.29257 7.6835 4.1336 7.56629 4.01639C7.44908 3.89918 7.29011 3.83333 7.12435 3.83333H3.79102Z" fill="#DB4C45"/>
</svg>
