<svg width="105" height="93" viewBox="0 0 105 93" fill="none" xmlns="http://www.w3.org/2000/svg">
<path d="M40.1448 83.0173C37.0165 80.2603 34.9571 76.4169 29.2426 71.8429C25.6041 68.9305 4.69329 68.7851 1.02946 45.2572C0.644891 42.7857 0.610731 40.194 0.892819 37.8205C5.44038 -0.417801 52.841 -11.5614 86.7918 13.1753C95.2985 19.3735 113.438 41.6088 98.7232 70.5559C88.568 90.5323 61.1383 101.515 40.1448 83.0173Z" fill="#F7F0DB"/>
<path d="M46.4479 33.7916H33.3229C32.5494 33.7916 31.8075 33.4843 31.2605 32.9373C30.7135 32.3903 30.4062 31.6485 30.4062 30.8749V17.7499C30.4062 16.9764 30.7135 16.2345 31.2605 15.6875C31.8075 15.1405 32.5494 14.8333 33.3229 14.8333C34.0965 14.8333 34.8383 15.1405 35.3853 15.6875C35.9323 16.2345 36.2396 16.9764 36.2396 17.7499V27.9583H46.4479C47.2215 27.9583 47.9633 28.2655 48.5103 28.8125C49.0573 29.3595 49.3646 30.1014 49.3646 30.8749C49.3646 31.6485 49.0573 32.3903 48.5103 32.9373C47.9633 33.4843 47.2215 33.7916 46.4479 33.7916Z" fill="#E8B61A"/>
<path d="M82.5425 46.9168C81.7689 46.9168 81.0271 46.6095 80.4801 46.0625C79.9331 45.5155 79.6258 44.7736 79.6258 44.0001C79.628 38.8654 77.9354 33.8736 74.8107 29.7992C71.6859 25.7247 67.3037 22.7956 62.3441 21.4663C57.3845 20.137 52.1248 20.4818 47.3811 22.4472C42.6375 24.4127 38.6752 27.8889 36.1092 32.3363C35.7216 33.0058 35.084 33.494 34.3365 33.6934C33.5891 33.8927 32.793 33.787 32.1235 33.3995C31.454 33.0119 30.9659 32.3743 30.7665 31.6268C30.5671 30.8794 30.6729 30.0833 31.0604 29.4138C34.2695 23.8554 39.2232 19.5113 45.1532 17.0556C51.0831 14.5999 57.6578 14.1698 63.8571 15.8321C70.0564 17.4943 75.5339 21.156 79.4397 26.249C83.3456 31.3421 85.4615 37.5818 85.4592 44.0001C85.4592 44.7736 85.1519 45.5155 84.6049 46.0625C84.0579 46.6095 83.316 46.9168 82.5425 46.9168ZM79.2612 73.1668C78.4877 73.1668 77.7458 72.8595 77.1988 72.3125C76.6519 71.7655 76.3446 71.0236 76.3446 70.2501V60.0418H66.1362C65.3627 60.0418 64.6208 59.7345 64.0738 59.1875C63.5269 58.6405 63.2196 57.8986 63.2196 57.1251C63.2196 56.3515 63.5269 55.6097 64.0738 55.0627C64.6208 54.5157 65.3627 54.2084 66.1362 54.2084H79.2612C80.0348 54.2084 80.7767 54.5157 81.3236 55.0627C81.8706 55.6097 82.1779 56.3515 82.1779 57.1251V70.2501C82.1779 71.0236 81.8706 71.7655 81.3236 72.3125C80.7767 72.8595 80.0348 73.1668 79.2612 73.1668Z" fill="#E8B61A"/>
<path d="M56.2917 73.1666C48.559 73.1573 41.1458 70.0814 35.6779 64.6136C30.2101 59.1458 27.1343 51.7326 27.125 43.9999C27.125 43.2264 27.4323 42.4845 27.9793 41.9375C28.5263 41.3905 29.2681 41.0833 30.0417 41.0833C30.8152 41.0833 31.5571 41.3905 32.1041 41.9375C32.651 42.4845 32.9583 43.2264 32.9583 43.9999C32.9561 49.1346 34.6487 54.1264 37.7735 58.2009C40.8982 62.2753 45.2804 65.2044 50.2401 66.5337C55.1997 67.863 60.4594 67.5182 65.203 65.5528C69.9466 63.5873 73.9089 60.1112 76.475 55.6637C76.6669 55.3322 76.9222 55.0417 77.2264 54.8089C77.5305 54.576 77.8775 54.4054 78.2476 54.3067C78.6177 54.2079 79.0037 54.1831 79.3834 54.2335C79.7631 54.2839 80.1291 54.4086 80.4606 54.6005C80.7921 54.7924 81.0826 55.0477 81.3154 55.3519C81.5483 55.656 81.7189 56.0031 81.8176 56.3732C81.9164 56.7433 81.9412 57.1292 81.8908 57.5089C81.8404 57.8886 81.7156 58.2547 81.5238 58.5862C78.9586 63.0092 75.2791 66.6829 70.852 69.2411C66.4249 71.7993 61.4047 73.1527 56.2917 73.1666Z" fill="#E8B61A"/>
</svg>
