<svg width="29" height="28" viewBox="0 0 29 28" fill="none" xmlns="http://www.w3.org/2000/svg">
<mask id="mask0_565_1983" style="mask-type:luminance" maskUnits="userSpaceOnUse" x="2" y="3" width="25" height="22">
<path d="M26.1667 18.0833C26.1667 21.3051 23.5551 23.9167 20.3333 23.9167C19.2892 23.9167 18.308 23.6425 17.4598 23.1613C16.5616 22.6521 15.8144 21.9139 15.2944 21.0219C14.7745 20.1298 14.5003 19.1159 14.5 18.0833C14.5 16.5853 15.0647 15.2192 15.9922 14.1867C16.5387 13.5765 17.2079 13.0885 17.956 12.7548C18.7041 12.4211 19.5142 12.2491 20.3333 12.25C23.5551 12.25 26.1667 14.8616 26.1667 18.0833Z" fill="white" stroke="white" stroke-width="1.66667" stroke-linecap="round" stroke-linejoin="round"/>
<path d="M20.334 7V12.25C19.5148 12.2491 18.7047 12.4211 17.9566 12.7548C17.2085 13.0885 16.5393 13.5765 15.9928 14.1867C15.0302 15.2561 14.4985 16.6445 14.5007 18.0833C14.501 19.1158 14.7751 20.1298 15.2951 21.0218C15.815 21.9139 16.5622 22.6521 17.4605 23.1613C15.9077 23.6308 13.8462 23.9167 11.584 23.9167C6.75165 23.9167 2.83398 22.6106 2.83398 21V7" stroke="white" stroke-width="1.66667" stroke-linecap="round" stroke-linejoin="round"/>
<path d="M20.334 6.99992C20.334 8.6105 16.4163 9.91658 11.584 9.91658C6.75165 9.91658 2.83398 8.6105 2.83398 6.99992C2.83398 5.38934 6.75165 4.08325 11.584 4.08325C16.4163 4.08325 20.334 5.38934 20.334 6.99992Z" fill="white" stroke="white" stroke-width="1.66667" stroke-linecap="round" stroke-linejoin="round"/>
<path d="M2.83398 16.3332C2.83398 17.9438 6.75165 19.2498 11.584 19.2498C12.6381 19.2498 13.649 19.188 14.5847 19.0737M2.83398 11.6665C2.83398 13.2771 6.75165 14.5832 11.584 14.5832C13.1917 14.5832 14.6984 14.4385 15.9928 14.1865" stroke="white" stroke-width="1.66667" stroke-linecap="round" stroke-linejoin="round"/>
<path d="M22.9583 16.9165L19.75 20.1248L18 18.3748" stroke="black" stroke-width="1.66667" stroke-linecap="round" stroke-linejoin="round"/>
</mask>
<g mask="url(#mask0_565_1983)">
<path d="M0.5 0H28.5V28H0.5V0Z" fill="#A7AAC4"/>
</g>
<circle cx="20" cy="18" r="5" fill="white"/>
<path fill-rule="evenodd" clip-rule="evenodd" d="M20.5 25C22.3565 25 24.137 24.2625 25.4497 22.9497C26.7625 21.637 27.5 19.8565 27.5 18C27.5 16.1435 26.7625 14.363 25.4497 13.0503C24.137 11.7375 22.3565 11 20.5 11C18.6435 11 16.863 11.7375 15.5503 13.0503C14.2375 14.363 13.5 16.1435 13.5 18C13.5 19.8565 14.2375 21.637 15.5503 22.9497C16.863 24.2625 18.6435 25 20.5 25ZM18.4933 14.7567C18.3275 14.6021 18.1081 14.518 17.8814 14.522C17.6547 14.526 17.4384 14.6178 17.2781 14.7781C17.1178 14.9384 17.026 15.1547 17.022 15.3814C17.018 15.6081 17.1021 15.8275 17.2567 15.9933L22.5067 21.2433C22.6725 21.3979 22.8919 21.482 23.1186 21.478C23.3453 21.474 23.5616 21.3822 23.7219 21.2219C23.8822 21.0616 23.974 20.8453 23.978 20.6186C23.982 20.3919 23.8979 20.1725 23.7433 20.0067L18.4933 14.7567Z" fill="#CACDE4"/>
</svg>
