<svg width="29" height="28" viewBox="0 0 29 28" fill="none" xmlns="http://www.w3.org/2000/svg">
<mask id="mask0_565_1939" style="mask-type:luminance" maskUnits="userSpaceOnUse" x="2" y="3" width="25" height="22">
<path d="M26.1667 18.0833C26.1667 21.3051 23.5551 23.9167 20.3333 23.9167C19.2892 23.9167 18.308 23.6425 17.4598 23.1613C16.5616 22.6521 15.8144 21.9139 15.2944 21.0219C14.7745 20.1298 14.5003 19.1159 14.5 18.0833C14.5 16.5853 15.0647 15.2192 15.9922 14.1867C16.5387 13.5765 17.2079 13.0885 17.956 12.7548C18.7041 12.4211 19.5142 12.2491 20.3333 12.25C23.5551 12.25 26.1667 14.8616 26.1667 18.0833Z" fill="white" stroke="white" stroke-width="1.66667" stroke-linecap="round" stroke-linejoin="round"/>
<path d="M20.334 7V12.25C19.5148 12.2491 18.7047 12.4211 17.9566 12.7548C17.2085 13.0885 16.5393 13.5765 15.9928 14.1867C15.0302 15.2561 14.4985 16.6445 14.5007 18.0833C14.501 19.1158 14.7751 20.1298 15.2951 21.0218C15.815 21.9139 16.5622 22.6521 17.4605 23.1613C15.9077 23.6308 13.8462 23.9167 11.584 23.9167C6.75165 23.9167 2.83398 22.6106 2.83398 21V7" stroke="white" stroke-width="1.66667" stroke-linecap="round" stroke-linejoin="round"/>
<path d="M20.334 6.99992C20.334 8.6105 16.4163 9.91658 11.584 9.91658C6.75165 9.91658 2.83398 8.6105 2.83398 6.99992C2.83398 5.38934 6.75165 4.08325 11.584 4.08325C16.4163 4.08325 20.334 5.38934 20.334 6.99992Z" fill="white" stroke="white" stroke-width="1.66667" stroke-linecap="round" stroke-linejoin="round"/>
<path d="M2.83398 16.3332C2.83398 17.9438 6.75165 19.2498 11.584 19.2498C12.6381 19.2498 13.649 19.188 14.5847 19.0737M2.83398 11.6665C2.83398 13.2771 6.75165 14.5832 11.584 14.5832C13.1917 14.5832 14.6984 14.4385 15.9928 14.1865" stroke="white" stroke-width="1.66667" stroke-linecap="round" stroke-linejoin="round"/>
<path d="M22.9583 16.9165L19.75 20.1248L18 18.3748" stroke="black" stroke-width="1.66667" stroke-linecap="round" stroke-linejoin="round"/>
</mask>
<g mask="url(#mask0_565_1939)">
<path d="M0.5 0H28.5V28H0.5V0Z" fill="#F28088"/>
</g>
<circle cx="21" cy="18" r="6" fill="white"/>
<path d="M21.8218 18.333L23.8021 16.3534C23.9335 16.2221 24.0073 16.0439 24.0073 15.8582C24.0073 15.6724 23.9335 15.4943 23.8021 15.3629C23.6708 15.2316 23.4926 15.1578 23.3069 15.1578C23.1211 15.1578 22.943 15.2316 22.8116 15.3629L20.832 17.3432L18.8524 15.3629C18.7211 15.2316 18.5429 15.1578 18.3572 15.1578C18.1714 15.1578 17.9933 15.2316 17.8619 15.3629C17.7306 15.4943 17.6568 15.6724 17.6568 15.8582C17.6568 16.0439 17.7306 16.2221 17.8619 16.3534L19.8422 18.333L17.8619 20.3126C17.7306 20.444 17.6568 20.6221 17.6568 20.8079C17.6568 20.9936 17.7306 21.1718 17.8619 21.3031C17.9933 21.4345 18.1714 21.5082 18.3572 21.5082C18.5429 21.5082 18.7211 21.4345 18.8524 21.3031L20.832 19.3228L22.8116 21.3031C22.943 21.4345 23.1211 21.5082 23.3069 21.5082C23.4926 21.5082 23.6708 21.4345 23.8021 21.3031C23.9335 21.1718 24.0073 20.9936 24.0073 20.8079C24.0073 20.6221 23.9335 20.444 23.8021 20.3126L21.8218 18.333ZM20.832 25.333C16.9659 25.333 13.832 22.1991 13.832 18.333C13.832 14.4669 16.9659 11.333 20.832 11.333C24.6981 11.333 27.832 14.4669 27.832 18.333C27.832 22.1991 24.6981 25.333 20.832 25.333Z" fill="#F28088"/>
</svg>
