<svg width="29" height="28" viewBox="0 0 29 28" fill="none" xmlns="http://www.w3.org/2000/svg">
<mask id="mask0_565_1921" style="mask-type:luminance" maskUnits="userSpaceOnUse" x="2" y="3" width="25" height="22">
<path d="M26.1667 18.0833C26.1667 21.3051 23.5551 23.9167 20.3333 23.9167C19.2892 23.9167 18.308 23.6425 17.4598 23.1613C16.5616 22.6521 15.8144 21.9139 15.2944 21.0219C14.7745 20.1298 14.5003 19.1159 14.5 18.0833C14.5 16.5853 15.0647 15.2192 15.9922 14.1867C16.5387 13.5765 17.2079 13.0885 17.956 12.7548C18.7041 12.4211 19.5142 12.2491 20.3333 12.25C23.5551 12.25 26.1667 14.8616 26.1667 18.0833Z" fill="white" stroke="white" stroke-width="1.66667" stroke-linecap="round" stroke-linejoin="round"/>
<path d="M20.334 7V12.25C19.5148 12.2491 18.7047 12.4211 17.9566 12.7548C17.2085 13.0885 16.5393 13.5765 15.9928 14.1867C15.0302 15.2561 14.4985 16.6445 14.5007 18.0833C14.501 19.1158 14.7751 20.1298 15.2951 21.0218C15.815 21.9139 16.5622 22.6521 17.4605 23.1613C15.9077 23.6308 13.8462 23.9167 11.584 23.9167C6.75165 23.9167 2.83398 22.6106 2.83398 21V7" stroke="white" stroke-width="1.66667" stroke-linecap="round" stroke-linejoin="round"/>
<path d="M20.334 6.99992C20.334 8.6105 16.4163 9.91658 11.584 9.91658C6.75165 9.91658 2.83398 8.6105 2.83398 6.99992C2.83398 5.38934 6.75165 4.08325 11.584 4.08325C16.4163 4.08325 20.334 5.38934 20.334 6.99992Z" fill="white" stroke="white" stroke-width="1.66667" stroke-linecap="round" stroke-linejoin="round"/>
<path d="M2.83398 16.3332C2.83398 17.9438 6.75165 19.2498 11.584 19.2498C12.6381 19.2498 13.649 19.188 14.5847 19.0737M2.83398 11.6665C2.83398 13.2771 6.75165 14.5832 11.584 14.5832C13.1917 14.5832 14.6984 14.4385 15.9928 14.1865" stroke="white" stroke-width="1.66667" stroke-linecap="round" stroke-linejoin="round"/>
<path d="M22.9583 16.9165L19.75 20.1248L18 18.3748" stroke="black" stroke-width="1.66667" stroke-linecap="round" stroke-linejoin="round"/>
</mask>
<g mask="url(#mask0_565_1921)">
<path d="M0.5 0H28.5V28H0.5V0Z" fill="#3AC271"/>
</g>
</svg>
