<svg width="29" height="28" viewBox="0 0 29 28" fill="none" xmlns="http://www.w3.org/2000/svg">
<mask id="mask0_565_1959" style="mask-type:luminance" maskUnits="userSpaceOnUse" x="2" y="3" width="25" height="22">
<path d="M26.1667 18.0833C26.1667 21.3051 23.5551 23.9167 20.3333 23.9167C19.2892 23.9167 18.308 23.6425 17.4598 23.1613C16.5616 22.6521 15.8144 21.9139 15.2944 21.0219C14.7745 20.1298 14.5003 19.1159 14.5 18.0833C14.5 16.5853 15.0647 15.2192 15.9922 14.1867C16.5387 13.5765 17.2079 13.0885 17.956 12.7548C18.7041 12.4211 19.5142 12.2491 20.3333 12.25C23.5551 12.25 26.1667 14.8616 26.1667 18.0833Z" fill="white" stroke="white" stroke-width="1.66667" stroke-linecap="round" stroke-linejoin="round"/>
<path d="M20.334 7V12.25C19.5148 12.2491 18.7047 12.4211 17.9566 12.7548C17.2085 13.0885 16.5393 13.5765 15.9928 14.1867C15.0302 15.2561 14.4985 16.6445 14.5007 18.0833C14.501 19.1158 14.7751 20.1298 15.2951 21.0218C15.815 21.9139 16.5622 22.6521 17.4605 23.1613C15.9077 23.6308 13.8462 23.9167 11.584 23.9167C6.75165 23.9167 2.83398 22.6106 2.83398 21V7" stroke="white" stroke-width="1.66667" stroke-linecap="round" stroke-linejoin="round"/>
<path d="M20.334 6.99992C20.334 8.6105 16.4163 9.91658 11.584 9.91658C6.75165 9.91658 2.83398 8.6105 2.83398 6.99992C2.83398 5.38934 6.75165 4.08325 11.584 4.08325C16.4163 4.08325 20.334 5.38934 20.334 6.99992Z" fill="white" stroke="white" stroke-width="1.66667" stroke-linecap="round" stroke-linejoin="round"/>
<path d="M2.83398 16.3332C2.83398 17.9438 6.75165 19.2498 11.584 19.2498C12.6381 19.2498 13.649 19.188 14.5847 19.0737M2.83398 11.6665C2.83398 13.2771 6.75165 14.5832 11.584 14.5832C13.1917 14.5832 14.6984 14.4385 15.9928 14.1865" stroke="white" stroke-width="1.66667" stroke-linecap="round" stroke-linejoin="round"/>
<path d="M22.9583 16.9165L19.75 20.1248L18 18.3748" stroke="black" stroke-width="1.66667" stroke-linecap="round" stroke-linejoin="round"/>
</mask>
<g mask="url(#mask0_565_1959)">
<path d="M0.5 0H28.5V28H0.5V0Z" fill="#E8B61A"/>
</g>
<circle cx="20" cy="18" r="7" fill="#F3DB8D"/>
<path d="M20.1579 11.333C18.3654 11.3376 16.6461 12.0443 15.3684 13.3015V12.0172C15.3684 11.8358 15.2963 11.6617 15.168 11.5334C15.0397 11.4051 14.8657 11.333 14.6842 11.333C14.5027 11.333 14.3287 11.4051 14.2004 11.5334C14.0721 11.6617 14 11.8358 14 12.0172V15.0962C14 15.2776 14.0721 15.4517 14.2004 15.58C14.3287 15.7083 14.5027 15.7804 14.6842 15.7804H17.7632C17.9446 15.7804 18.1187 15.7083 18.247 15.58C18.3753 15.4517 18.4474 15.2776 18.4474 15.0962C18.4474 14.9147 18.3753 14.7407 18.247 14.6124C18.1187 14.484 17.9446 14.412 17.7632 14.412H16.2018C16.8257 13.756 17.6027 13.2652 18.4631 12.9836C19.3235 12.702 20.2404 12.6385 21.1314 12.7986C22.0224 12.9588 22.8597 13.3377 23.5682 13.9013C24.2767 14.4649 24.8341 15.1955 25.1905 16.0277C25.547 16.8599 25.6912 17.7676 25.6103 18.6692C25.5294 19.5709 25.2259 20.4384 24.727 21.1938C24.2282 21.9493 23.5495 22.5691 22.7521 22.9975C21.9546 23.426 21.0632 23.6498 20.1579 23.6488C19.9764 23.6488 19.8024 23.7209 19.6741 23.8492C19.5458 23.9775 19.4737 24.1515 19.4737 24.333C19.4737 24.5145 19.5458 24.6885 19.6741 24.8168C19.8024 24.9451 19.9764 25.0172 20.1579 25.0172C21.9725 25.0172 23.7129 24.2964 24.996 23.0132C26.2791 21.7301 27 19.9898 27 18.1751C27 16.3605 26.2791 14.6202 24.996 13.337C23.7129 12.0539 21.9725 11.333 20.1579 11.333Z" fill="#E8B61A"/>
<path d="M21.5253 18.8588H20.1569C19.9754 18.8588 19.8014 18.7867 19.6731 18.6584C19.5447 18.5301 19.4727 18.3561 19.4727 18.1746V16.122C19.4727 15.9405 19.5447 15.7665 19.6731 15.6381C19.8014 15.5098 19.9754 15.4377 20.1569 15.4377C20.3383 15.4377 20.5124 15.5098 20.6407 15.6381C20.769 15.7665 20.8411 15.9405 20.8411 16.122V17.4904H21.5253C21.7068 17.4904 21.8808 17.5625 22.0091 17.6908C22.1374 17.8191 22.2095 17.9931 22.2095 18.1746C22.2095 18.3561 22.1374 18.5301 22.0091 18.6584C21.8808 18.7867 21.7068 18.8588 21.5253 18.8588Z" fill="#E8B61A"/>
</svg>
